<?xml version="1.0" standalone="no"?>
<!DOCTYPE svg PUBLIC "-//W3C//DTD SVG 20010904//EN"
 "http://www.w3.org/TR/2001/REC-SVG-20010904/DTD/svg10.dtd">
<svg version="1.0" xmlns="http://www.w3.org/2000/svg"
 width="1024.000000pt" height="1024.000000pt" viewBox="0 0 1024.000000 1024.000000"
 preserveAspectRatio="xMidYMid meet">
<metadata>
Created by potrace 1.16, written by Peter Selinger 2001-2019
</metadata>
<g transform="translate(0.000000,1024.000000) scale(0.100000,-0.100000)"
fill="#000000" stroke="none">
<path d="M4525 9921 c-94 -23 -190 -61 -370 -144 -164 -76 -246 -109 -405
-167 -356 -129 -600 -236 -812 -356 -91 -52 -173 -94 -180 -94 -8 0 -35 -15
-59 -34 -60 -46 -225 -140 -274 -156 -49 -16 -98 -40 -93 -46 3 -2 26 2 51 10
26 8 47 13 47 11 0 -2 -21 -14 -47 -28 -42 -21 -62 -24 -158 -26 -129 -1 -268
-31 -410 -88 -132 -53 -338 -158 -433 -221 -91 -61 -206 -168 -237 -222 -13
-23 -59 -62 -135 -113 l-115 -79 -255 5 c-273 5 -391 -2 -481 -29 -58 -17
-119 -57 -107 -69 4 -4 42 1 85 10 84 19 180 17 283 -6 l55 -13 -65 -14 c-36
-7 -90 -20 -120 -29 l-55 -15 30 -13 30 -12 -40 -8 c-62 -11 -75 -15 -75 -27
0 -7 15 -8 43 -4 23 4 59 9 80 13 44 7 47 -5 17 -55 -29 -47 -142 -117 -282
-175 -36 -15 -51 -37 -26 -37 6 0 66 27 132 59 131 64 185 108 218 179 13 26
28 44 42 47 52 10 193 26 263 30 43 2 137 6 208 10 351 16 518 43 729 115 50
16 91 30 93 30 2 0 3 -24 3 -53 0 -44 -4 -58 -25 -77 -15 -14 -25 -18 -25 -10
0 22 -61 -62 -90 -125 -16 -33 -34 -80 -40 -105 -20 -74 -36 -102 -102 -184
-35 -43 -78 -97 -96 -119 -103 -129 -109 -134 -165 -135 -29 0 -72 -5 -97 -10
-24 -6 -46 -9 -48 -7 -2 2 6 23 18 46 12 25 16 45 10 47 -5 2 1 25 15 52 39
77 65 186 64 265 l-2 70 -7 -65 c-15 -140 -99 -321 -199 -430 -38 -41 -91
-100 -118 -130 -112 -126 -262 -250 -303 -250 -9 0 -29 -9 -42 -20 -16 -12
-48 -22 -84 -25 -33 -3 -98 -13 -146 -22 -85 -16 -134 -13 -200 12 -15 6 -17
-24 -18 -393 0 -261 3 -403 9 -407 7 -4 7 -12 -1 -25 -10 -15 -9 -23 7 -41 27
-29 86 -70 66 -46 -12 15 -11 20 5 39 19 20 19 21 -3 14 -35 -11 -36 11 -1 35
18 12 89 77 158 143 69 67 181 168 250 225 69 57 130 109 135 115 20 24 170
106 193 106 22 0 21 -2 -18 -59 -22 -33 -40 -64 -40 -69 0 -17 -27 -34 -35
-22 -3 5 -14 10 -23 10 -13 -1 -11 -6 9 -24 23 -20 27 -33 31 -98 3 -41 12
-88 20 -105 l16 -31 -58 -26 c-31 -14 -74 -33 -95 -42 -29 -12 -35 -18 -24
-25 15 -9 73 -2 102 13 39 20 13 -2 -50 -42 -38 -24 -120 -96 -184 -159 -90
-91 -127 -136 -168 -208 -53 -92 -71 -106 -71 -55 0 46 -49 127 -118 193 -63
61 -66 60 -14 -5 12 -15 30 -42 39 -60 l16 -31 -28 25 c-15 14 -49 54 -76 89
l-49 64 0 -50 c0 -40 5 -54 26 -74 14 -13 40 -42 57 -64 l32 -40 -55 48 c-50
43 -55 46 -58 26 -2 -13 8 -33 27 -53 17 -18 31 -41 31 -51 0 -11 -4 -16 -8
-10 -4 6 -17 19 -29 29 l-23 19 0 -232 0 -233 35 31 c36 31 85 42 85 19 -1 -7
-7 -42 -15 -78 -8 -36 -15 -87 -15 -115 l0 -50 -20 25 c-11 14 -20 28 -20 33
0 8 -37 47 -45 47 -14 0 -2 -128 20 -203 28 -97 45 -193 45 -256 l0 -43 -35 4
-35 4 0 -281 0 -280 60 -120 c33 -66 72 -154 87 -195 16 -41 30 -79 32 -85 5
-12 -112 114 -151 163 l-28 35 0 -38 c0 -25 8 -49 25 -70 13 -18 21 -35 18
-39 -4 -3 -2 -6 4 -6 6 0 32 -26 59 -57 59 -70 31 -52 -48 31 -54 56 -58 59
-58 34 0 -15 5 -30 10 -33 6 -3 10 -11 10 -16 0 -6 -6 -7 -12 -3 -17 10 54
-79 106 -134 38 -40 65 -56 50 -30 -5 10 -3 10 7 0 8 -7 14 -18 14 -25 1 -7 7
-11 14 -9 7 1 10 -2 6 -8 -3 -5 5 -15 19 -22 17 -7 26 -19 26 -33 0 -14 8 -25
20 -28 18 -5 19 -7 3 -45 -9 -24 -24 -42 -36 -46 -26 -6 -89 26 -152 78 -93
78 -85 78 -85 -8 0 -75 0 -77 33 -96 17 -11 50 -25 72 -31 22 -6 56 -22 76
-35 31 -21 40 -23 65 -14 16 6 44 25 62 43 l32 31 48 -46 c57 -55 199 -157
301 -215 64 -36 80 -41 115 -37 49 7 109 -12 86 -26 -19 -13 -96 -13 -157 0
-26 5 -113 15 -194 21 -131 11 -150 10 -198 -6 -36 -12 -58 -26 -70 -46 l-18
-29 -53 46 c-49 42 -147 100 -155 92 -6 -5 291 -308 301 -308 6 0 28 -23 49
-52 22 -28 61 -67 88 -86 l48 -35 -54 -22 c-30 -12 -68 -32 -86 -44 -38 -27
-57 -22 -66 17 -3 16 -27 52 -53 81 -49 53 -80 64 -122 41 -26 -14 -60 -72
-60 -103 0 -24 49 -77 71 -77 5 0 9 -7 9 -15 0 -19 51 -45 87 -45 23 0 32 -8
51 -43 l23 -44 -21 -37 c-24 -39 -21 -69 6 -64 9 2 19 -3 22 -11 3 -9 0 -11
-8 -6 -9 6 -10 3 -2 -11 5 -11 6 -28 1 -39 -4 -11 -8 -15 -8 -8 -1 6 -7 18
-14 25 -62 63 -229 319 -243 372 -3 11 -19 37 -35 56 l-29 34 0 -63 c0 -49 5
-72 26 -107 l26 -44 -26 0 -26 0 0 -104 0 -104 44 5 c38 5 53 0 96 -26 27 -17
54 -31 58 -31 4 0 1 4 -7 9 -14 9 -6 35 9 29 9 -4 96 -109 129 -156 13 -19 34
-45 47 -60 34 -35 84 -113 84 -128 0 -7 -9 -18 -20 -24 -28 -15 -25 -26 11
-39 48 -17 79 -13 138 14 35 16 49 20 41 10 -10 -12 -9 -16 3 -21 39 -14 52
-1 55 56 l3 55 -86 95 c-47 52 -112 134 -145 182 -55 79 -60 91 -60 140 0 29
-4 68 -9 85 -9 29 -7 35 18 52 15 11 46 27 69 36 50 20 78 12 149 -42 37 -28
53 -34 102 -35 74 -2 110 22 140 92 l22 51 -22 46 c-25 52 -63 73 -120 66 -42
-6 -179 21 -224 45 -45 23 -133 91 -139 108 -9 24 -8 26 12 15 11 -6 24 -6 35
0 11 7 24 6 37 -1 11 -6 20 -8 20 -4 0 13 33 -21 56 -58 14 -22 32 -38 42 -37
16 1 16 2 0 6 -10 2 -15 10 -11 19 3 8 0 14 -5 14 -18 0 -25 40 -10 57 11 14
11 16 -1 8 -11 -6 -13 -4 -8 8 3 9 1 18 -6 21 -9 3 -9 5 1 5 6 1 12 7 12 15 0
16 30 26 85 26 62 0 112 -18 185 -67 85 -56 104 -54 145 11 27 44 30 58 30
127 0 97 -8 108 -68 90 -23 -7 -68 -20 -99 -28 l-58 -16 -56 39 c-31 22 -72
53 -91 69 -32 27 -33 31 -14 32 11 1 23 -2 26 -8 9 -13 36 -11 54 5 9 7 42 23
73 36 68 28 128 74 128 99 0 10 -8 29 -18 42 -19 24 -76 120 -78 129 0 3 -4
17 -8 32 -11 36 9 54 56 53 25 -1 35 2 31 11 -2 7 -10 11 -16 9 -19 -7 -49 22
-45 42 4 21 69 29 155 18 49 -6 53 -9 73 -50 24 -49 81 -105 108 -105 15 0 15
-2 2 -10 -8 -5 -11 -10 -6 -10 5 0 18 8 29 17 19 17 19 17 13 -4 -6 -17 -3
-23 9 -23 9 0 13 5 10 10 -3 6 -2 10 4 10 5 0 13 -4 16 -10 7 -12 45 -14 45
-2 0 13 130 2 218 -19 113 -28 134 -32 160 -33 12 -1 22 -3 22 -6 0 -6 14 -7
145 -11 73 -2 96 0 115 14 14 9 30 17 37 17 7 0 35 10 63 22 37 16 50 27 50
42 0 12 5 28 11 36 9 13 10 12 5 -2 -3 -10 -1 -20 4 -23 6 -4 10 6 10 20 0 19
4 26 14 22 8 -3 17 0 19 7 4 9 -3 12 -21 9 -19 -3 -23 -2 -13 5 11 8 10 12 -5
21 -45 27 294 -7 366 -37 8 -3 29 -7 45 -8 17 -1 84 -9 150 -19 66 -9 195 -19
286 -22 l166 -6 49 28 49 27 60 -32 c193 -105 411 -210 486 -234 59 -19 96
-37 115 -57 29 -30 61 -37 96 -18 16 9 30 5 76 -24 89 -54 106 -61 297 -127
315 -108 310 -107 602 -141 160 -19 487 3 554 37 22 11 38 39 69 119 4 11 54
48 111 82 57 33 154 95 214 137 61 42 173 118 250 169 77 50 178 125 223 164
45 40 87 73 93 73 12 0 63 -52 91 -91 15 -22 18 -23 40 -9 12 8 70 39 128 71
58 31 140 75 183 99 81 44 98 44 112 -1 10 -31 24 -22 45 26 14 34 29 49 57
62 21 10 41 22 44 26 3 5 10 8 15 8 5 -1 9 5 9 12 0 9 77 13 338 17 185 3 337
4 337 3 0 -11 -58 -25 -161 -38 -95 -11 -146 -24 -219 -53 -110 -43 -94 -56
29 -23 43 12 155 32 249 46 194 28 429 33 618 14 132 -14 454 -17 547 -5 64 8
67 7 67 -13 0 -11 3 -21 6 -21 26 0 194 48 286 82 73 26 113 37 116 29 2 -6 8
-11 14 -11 6 0 26 -16 44 -36 19 -19 38 -33 42 -30 5 3 8 -8 7 -25 -1 -20 2
-28 11 -25 7 3 25 1 41 -4 15 -4 21 -9 12 -9 -11 -1 -15 -8 -12 -24 3 -14 -2
-31 -11 -40 -9 -8 -16 -19 -16 -23 0 -5 5 -3 12 4 7 7 20 12 29 12 9 0 52 23
95 51 44 29 99 58 124 66 25 8 54 18 65 23 11 5 37 11 57 15 48 8 83 -22 74
-63 -4 -15 -3 -22 1 -15 6 8 13 7 28 -4 14 -11 16 -17 8 -20 -17 -6 -17 -24 0
-21 6 2 11 -4 9 -12 -2 -8 -5 -26 -7 -40 -8 -57 -105 -230 -129 -230 -38 0
-47 54 -15 94 l21 27 -26 -7 c-23 -5 -27 -2 -42 35 -9 23 -23 41 -33 42 -36 2
-77 -3 -88 -13 -7 -5 -18 -6 -24 -2 -8 4 -9 3 -5 -4 4 -7 2 -12 -4 -12 -6 0
-9 -4 -5 -9 3 -5 1 -12 -5 -16 -5 -3 -10 -15 -10 -26 0 -11 -4 -17 -10 -14 -6
3 -10 -5 -10 -19 0 -13 -6 -26 -12 -29 -10 -3 -8 -10 5 -25 18 -20 18 -21 -3
-32 -15 -8 -19 -17 -15 -31 4 -13 1 -21 -10 -25 -12 -5 -15 -14 -10 -31 3 -15
2 -22 -4 -19 -6 4 -13 -10 -17 -30 -5 -26 -3 -39 7 -45 12 -7 11 -9 -1 -9 -13
0 -13 -1 0 -10 12 -8 12 -10 -3 -16 -9 -3 -15 -10 -12 -15 8 -12 -74 -32 -94
-23 -9 4 -21 6 -28 5 -6 -1 -23 10 -37 24 -27 27 -67 33 -84 13 -5 -7 -13 -29
-17 -48 -5 -22 -22 -49 -46 -71 -35 -33 -39 -41 -41 -90 -2 -81 1 -100 25
-142 l22 -39 -25 -18 c-20 -15 -22 -20 -11 -34 14 -17 38 -20 65 -10 8 3 40
36 71 74 31 37 71 75 89 84 50 24 198 22 254 -4 23 -10 42 -23 42 -28 0 -6 18
-18 40 -28 l39 -19 -18 -41 c-28 -63 -135 -165 -240 -229 -114 -69 -146 -82
-166 -65 -21 17 -64 4 -74 -23 -5 -12 -15 -37 -22 -55 -11 -30 -15 -33 -41
-28 -31 6 -34 0 -14 -29 7 -11 16 -37 20 -58 4 -21 13 -40 21 -43 15 -6 57 14
130 62 56 37 400 174 456 181 l36 5 6 -47 c6 -41 3 -55 -22 -99 -16 -28 -41
-89 -56 -136 -14 -47 -44 -118 -65 -157 -37 -68 -38 -73 -20 -83 14 -8 20 -26
25 -85 4 -41 10 -75 14 -75 4 0 26 14 49 31 31 23 44 41 52 72 24 97 33 125
62 182 56 113 183 309 227 352 43 42 48 61 7 25 -12 -10 -41 -27 -66 -37 -58
-24 -70 -34 -70 -54 0 -24 -58 -113 -69 -106 -6 3 -14 -2 -19 -12 -7 -12 -9
-5 -8 28 1 31 9 55 29 80 26 34 26 38 12 65 -8 15 -12 37 -10 49 2 11 7 41 10
68 l6 47 44 0 c40 0 44 -2 47 -27 5 -43 39 -42 87 3 41 36 41 37 41 109 0 78
-5 85 -57 85 -35 0 -110 -45 -154 -92 -20 -21 -43 -38 -52 -38 -9 0 -18 -12
-22 -33 -12 -57 -16 -67 -31 -67 -15 0 -98 -32 -286 -109 -54 -22 -131 -58
-172 -80 -76 -43 -106 -50 -106 -28 0 15 41 57 56 57 5 0 21 15 35 33 14 17
66 54 115 81 169 93 208 125 332 274 26 32 38 53 31 57 -6 4 -8 17 -5 29 25
101 33 146 25 146 -5 0 -15 -11 -21 -25 -6 -14 -15 -25 -20 -25 -5 0 -31 20
-57 45 -45 42 -53 46 -127 55 -57 7 -94 7 -131 -1 -47 -11 -55 -10 -73 6 -12
11 -36 19 -55 19 -33 0 -34 1 -18 18 13 15 26 17 68 12 115 -14 220 32 341
148 81 78 85 81 116 72 27 -8 34 -16 40 -49 18 -85 73 -100 138 -35 22 22 40
47 40 55 0 18 5 18 31 5 18 -10 19 -6 19 97 l0 108 -20 -30 c-11 -16 -25 -42
-31 -57 -8 -19 -19 -28 -35 -28 -26 0 -41 16 -22 23 7 3 1 6 -14 6 -16 1 -32
9 -38 20 -5 11 -17 26 -25 35 -15 14 -9 26 58 128 41 62 86 136 101 165 l26
52 -1 570 c0 314 -2 571 -4 571 -15 0 -62 -113 -100 -240 -9 -30 -19 -62 -22
-70 -11 -28 -14 -45 -23 -133 -4 -49 -10 -90 -12 -92 -2 -2 -19 2 -39 8 l-36
11 44 95 c25 52 46 112 48 134 2 21 7 53 11 70 4 18 7 46 6 62 -2 23 0 26 8
15 7 -11 10 -4 10 28 0 47 -16 57 -25 15 -17 -82 -27 -120 -40 -150 -12 -29
-18 -33 -52 -33 -22 0 -44 -5 -50 -11 -14 -14 -24 64 -14 119 5 23 5 42 0 42
-4 0 -7 19 -6 42 1 25 -3 43 -11 46 -7 2 -12 11 -12 20 0 15 2 15 11 2 9 -12
10 -12 5 4 -7 22 37 226 64 297 10 27 32 66 49 88 17 21 31 42 31 46 0 13 -22
-8 -52 -48 l-30 -42 7 60 c4 33 18 108 31 167 13 59 24 118 24 132 0 15 6 26
13 26 7 0 49 25 92 55 44 30 74 55 68 55 -6 0 -14 7 -17 16 -4 12 -2 15 9 10
21 -8 20 37 -1 74 -17 28 -13 67 6 55 5 -3 10 -1 10 4 0 6 -5 11 -10 11 -7 0
-7 6 -1 19 6 11 10 42 10 70 -2 51 -2 51 -23 37 -83 -58 -196 -123 -235 -136
-56 -18 -77 -52 -58 -93 16 -35 26 -34 38 2 6 16 17 32 25 35 8 3 14 12 14 21
0 8 4 15 9 15 5 0 51 27 102 61 117 77 134 83 83 28 -23 -24 -54 -62 -70 -84
-32 -45 -116 -146 -181 -217 -39 -43 -43 -51 -37 -86 8 -48 -21 -301 -46 -409
-28 -117 -69 -205 -106 -221 -16 -8 -41 -20 -56 -27 -23 -12 -30 -12 -41 0
-22 21 -85 -17 -181 -110 -130 -125 -174 -165 -181 -165 -10 0 -58 -59 -100
-126 -48 -75 -166 -215 -211 -249 -80 -61 -273 -145 -461 -200 -103 -30 -217
-61 -252 -67 -46 -9 -65 -17 -69 -30 -2 -9 -12 -20 -21 -22 -70 -21 -288 -49
-446 -56 -104 -5 -245 -12 -312 -16 -90 -5 -126 -4 -137 5 -11 9 -26 9 -69 -4
-29 -8 -85 -17 -123 -19 -38 -2 -125 -11 -194 -19 -342 -44 -475 -57 -617 -57
-103 0 -153 -4 -153 -11 0 -12 -79 -10 -96 3 -7 5 -14 3 -17 -6 -11 -27 -115
-10 -219 36 -40 18 -52 19 -74 9 -23 -10 -26 -9 -21 4 4 8 3 15 -1 16 -28 3
-60 11 -81 22 -14 7 -41 12 -58 11 -18 -1 -33 3 -33 8 0 5 -6 8 -12 5 -7 -2
-20 -1 -29 4 -8 4 -22 3 -30 -2 -12 -7 -12 -9 0 -9 8 0 12 -3 8 -6 -14 -15
-27 8 -16 29 7 12 8 19 4 15 -4 -4 -24 1 -44 12 -26 13 -71 64 -153 172 -113
148 -159 223 -173 281 -4 15 -12 27 -17 27 -6 0 -7 -7 -4 -16 3 -9 9 -34 12
-57 4 -23 10 -49 15 -57 16 -33 34 -209 26 -260 -3 -14 -5 -33 -6 -43 0 -10
-5 -15 -11 -12 -5 3 -10 2 -10 -3 0 -6 -7 -13 -16 -16 -9 -3 -12 -2 -9 5 4 6
-3 7 -19 3 -15 -3 -26 -2 -26 4 0 5 -10 12 -22 15 -12 4 -19 9 -15 13 4 4 2
13 -3 19 -8 9 -4 28 10 64 45 114 35 255 -25 351 -39 63 -45 60 -14 -7 30 -66
42 -156 29 -216 -20 -94 -118 -257 -155 -257 -7 0 -15 -5 -17 -10 -4 -13 -116
-43 -134 -36 -8 3 -14 1 -14 -4 0 -5 -7 -7 -15 -4 -8 4 -15 2 -15 -2 0 -5 -10
-10 -23 -11 -12 -1 -89 -13 -172 -27 -159 -28 -277 -58 -322 -81 -52 -27 -62
-21 -52 33 19 97 29 278 20 359 -13 130 -53 184 -111 153 l-22 -12 22 -23 c12
-13 33 -53 46 -90 20 -55 24 -84 24 -178 -1 -70 -7 -142 -18 -192 l-18 -80
-45 0 c-47 0 -47 0 -36 70 1 5 -8 11 -20 13 -18 3 -26 -3 -34 -25 -13 -35 -50
-70 -82 -78 -25 -7 -166 20 -199 37 -10 5 -18 15 -18 23 0 14 -80 55 -108 55
-8 0 -51 20 -96 44 -45 24 -127 60 -183 81 -87 32 -258 118 -287 146 -11 10
172 -70 336 -148 65 -30 123 -53 130 -51 20 7 -102 75 -294 164 -211 98 -267
129 -363 197 -92 66 -168 130 -290 247 -162 154 -323 288 -659 550 -109 86
-288 190 -326 190 -14 0 -65 15 -115 34 -174 66 -188 74 -162 101 19 18 57 4
330 -126 221 -104 310 -155 499 -281 65 -43 118 -74 118 -69 0 25 -310 215
-545 336 -137 70 -255 132 -262 137 -7 5 -18 6 -24 2 -7 -4 -9 -3 -6 3 3 5
-25 28 -63 52 -39 24 -67 47 -64 54 2 7 -10 20 -28 30 -18 10 -44 26 -57 36
l-23 18 63 67 c35 37 71 80 80 96 24 38 55 47 82 23 59 -51 55 -40 -8 25 -71
73 -125 152 -125 185 0 23 -11 21 -37 -7 -52 -54 -129 -105 -151 -99 -20 5
-22 12 -22 72 -1 85 -27 148 -70 164 -36 14 -44 45 -38 145 5 80 22 119 84
190 40 46 70 65 242 152 172 86 412 230 412 247 0 3 -7 0 -15 -7 -26 -22 -26
-6 0 25 14 17 22 22 19 13 -14 -41 9 -14 33 38 15 33 34 59 44 61 11 3 19 10
19 15 0 5 5 6 10 3 5 -3 10 -1 10 4 0 6 -7 11 -15 11 -18 0 -18 -2 0 51 21 58
58 200 57 219 0 8 5 53 11 99 8 67 12 79 19 60 5 -13 7 -32 4 -41 -4 -16 3
-15 44 8 73 40 77 34 66 -83 -11 -123 -6 -149 37 -167 17 -7 43 -25 56 -40 27
-28 71 -35 90 -13 6 8 14 46 17 85 4 40 8 72 10 72 2 0 19 -17 39 -37 31 -34
34 -44 35 -93 0 -147 -47 -290 -95 -290 -13 0 -26 -6 -28 -12 -3 -7 -6 19 -7
57 -3 113 -17 36 -31 -175 -16 -239 -20 -359 -9 -305 4 22 8 31 9 20 l2 -20 9
20 c8 19 9 19 9 -2 1 -13 6 -23 12 -23 6 0 9 -6 6 -14 -3 -8 -1 -17 6 -20 9
-3 8 -5 -1 -5 -8 -1 -10 -6 -6 -13 12 -19 12 -72 0 -80 -8 -6 -6 -11 4 -18 12
-8 12 -10 1 -10 -9 0 -12 -9 -9 -29 2 -17 1 -28 -4 -25 -4 3 -8 -6 -8 -20 0
-13 -6 -26 -12 -28 -17 -6 -21 -258 -7 -343 12 -66 42 -137 73 -174 23 -26 27
-26 -44 -5 -14 3 17 -25 69 -63 96 -72 193 -126 246 -137 l30 -7 -3 61 -3 60
28 -5 c15 -2 59 -6 96 -9 38 -3 75 -10 82 -16 8 -6 28 -12 45 -12 21 -1 29 -5
26 -14 -5 -13 15 -24 42 -23 11 0 9 3 -7 10 -13 5 -21 12 -18 15 8 8 67 -6 67
-16 0 -17 56 -18 90 -1 99 49 260 137 300 165 118 80 237 221 311 368 34 67
66 114 98 146 83 80 112 98 85 53 -10 -17 -21 -31 -25 -31 -16 0 -31 -94 -25
-151 8 -83 21 -104 29 -47 3 24 23 82 43 129 20 46 41 102 46 124 18 79 48
109 169 169 61 31 122 56 135 56 39 0 81 27 88 56 10 40 -13 58 -74 57 -50 -1
-71 9 -49 23 8 4 9 3 5 -4 -8 -13 9 -15 38 -3 19 7 18 8 -5 14 -20 6 -21 9 -9
17 8 5 10 10 5 10 -6 0 -21 -7 -33 -16 -13 -9 -25 -14 -28 -11 -10 10 10 38
43 58 27 17 34 27 30 45 -3 18 3 25 32 37 37 16 72 29 81 32 3 0 22 7 42 14
52 17 124 19 140 3 11 -11 8 -18 -17 -39 l-30 -25 31 7 c26 5 34 1 63 -35 51
-63 94 -44 52 23 -41 66 -30 76 104 96 44 7 105 19 135 27 l55 14 66 -46 c125
-86 246 -112 364 -80 67 19 185 64 213 82 56 36 5 60 -52 25 -17 -11 -74 -34
-126 -52 -125 -42 -193 -44 -275 -6 -61 29 -125 72 -125 86 0 15 187 30 375
31 216 1 301 -12 513 -77 122 -38 123 -38 118 -65 -7 -34 16 -38 37 -8 12 18
21 20 58 14 64 -9 262 -59 349 -88 91 -30 191 -74 170 -76 -8 0 12 -15 44 -32
86 -44 107 -68 61 -68 -14 0 -25 -2 -25 -5 0 -30 28 -117 46 -145 13 -20 35
-63 48 -97 23 -59 64 -128 112 -185 12 -15 36 -56 52 -90 69 -145 411 -408
614 -472 217 -69 347 -36 514 130 91 90 216 289 282 450 29 70 37 83 98 153
21 24 33 51 37 81 3 25 20 92 37 150 54 187 79 294 87 365 l8 70 50 5 c28 3
46 8 40 11 -5 4 -40 2 -77 -4 l-68 -10 0 -89 c0 -95 -22 -214 -45 -244 -13
-17 -14 -13 -15 39 0 36 -6 67 -16 83 -15 22 -15 38 -5 143 6 66 11 148 11
184 0 69 6 77 56 77 72 0 254 112 254 157 0 24 -16 40 -22 22 -5 -14 -107 12
-184 46 -64 28 -68 44 -23 98 l31 38 -45 42 c-28 26 -61 74 -86 125 -47 93
-44 94 52 24 26 -19 51 -32 54 -28 15 15 -21 57 -89 101 -40 26 -102 70 -137
98 -39 30 -75 50 -95 52 -133 12 -183 19 -194 25 -8 4 12 5 44 2 l57 -5 -19
25 c-17 23 -29 26 -124 34 -106 9 -277 1 -293 -15 -4 -4 37 -11 91 -14 162
-10 350 -69 473 -148 53 -34 58 -40 89 -118 l20 -52 -73 41 c-133 75 -262 138
-316 154 -61 18 -186 22 -196 6 -12 -19 15 -39 68 -50 29 -6 65 -21 81 -33
l28 -23 -63 -12 c-35 -6 -106 -19 -158 -27 -51 -9 -101 -20 -110 -26 -14 -9
-13 -10 3 -5 36 12 189 36 225 36 53 0 111 -11 111 -21 0 -5 -40 -9 -89 -9
-65 0 -112 -7 -177 -25 -92 -27 -194 -71 -229 -99 -11 -9 23 4 75 29 122 58
179 68 380 69 153 1 169 -1 220 -23 30 -13 81 -44 113 -69 l57 -45 0 -62 c0
-59 2 -63 25 -69 14 -4 25 -13 25 -22 0 -11 -42 -106 -54 -121 0 -1 -13 -4
-27 -8 -28 -7 -36 3 -45 54 -14 74 -141 199 -219 216 -26 6 -23 2 21 -29 72
-49 159 -164 139 -184 -7 -7 -55 38 -55 52 0 15 -77 102 -84 95 -3 -3 12 -30
33 -60 29 -39 37 -57 29 -66 -15 -19 -23 -16 -62 17 -34 30 -94 60 -118 60 -7
0 -2 -9 12 -19 39 -30 80 -69 80 -78 0 -5 9 -14 20 -21 26 -16 26 -32 -1 -32
-30 0 -126 -28 -179 -52 -87 -40 -220 -70 -220 -50 0 11 95 55 190 88 68 24
89 44 46 44 -62 0 -269 -91 -386 -169 -30 -21 -75 -51 -100 -68 -25 -16 -76
-51 -115 -76 -38 -25 -83 -56 -99 -68 l-29 -23 6 120 c5 127 29 238 71 330 23
50 102 140 156 178 14 9 18 14 10 10 -8 -4 -28 -16 -43 -27 -73 -50 -14 22 68
84 78 59 50 47 -40 -16 -134 -95 -212 -230 -254 -444 -12 -57 -21 -132 -21
-166 0 -35 -5 -67 -10 -70 -6 -4 -8 -10 -5 -15 7 -12 -35 -24 -45 -13 -4 4
-17 48 -28 97 -25 104 -35 122 -26 43 6 -49 4 -57 -9 -57 -18 0 -21 10 -37
121 -10 68 -9 86 10 158 51 201 113 306 279 471 69 69 156 146 193 170 39 25
64 48 59 53 -29 29 -293 -177 -430 -335 -75 -88 -157 -237 -187 -341 -37 -127
-71 -187 -124 -219 -81 -49 -85 -46 -84 54 1 83 2 89 44 160 24 40 52 84 63
98 l20 25 -6 -97 c-3 -57 -2 -98 4 -98 5 0 9 1 9 3 1 20 31 82 40 82 7 0 13
19 14 50 2 58 23 102 140 290 114 183 264 328 431 416 138 73 236 163 158 145
-34 -8 -189 -87 -258 -131 -75 -47 -202 -158 -271 -234 -33 -38 -99 -124 -146
-192 -47 -68 -125 -176 -172 -239 -52 -69 -92 -132 -98 -157 -16 -56 -28 -45
-28 26 0 47 6 67 34 114 93 153 295 409 411 519 49 46 28 51 -36 8 -53 -36
-106 -88 -156 -155 -21 -27 -80 -106 -131 -175 -139 -185 -162 -232 -178 -350
-7 -55 -10 -108 -7 -120 4 -16 1 -20 -21 -20 -36 0 -95 26 -102 44 -3 8 6 40
20 71 13 30 23 55 21 55 -2 0 -15 -21 -30 -46 -15 -25 -32 -43 -38 -41 -7 2
-25 22 -42 45 -16 22 -36 41 -42 41 -21 1 -14 53 12 101 l25 45 -30 -35 c-31
-37 -36 -67 -21 -132 7 -30 6 -35 -6 -31 -22 9 -45 62 -38 90 8 33 72 126 129
187 25 26 46 51 46 54 0 11 -90 -82 -146 -149 -59 -72 -68 -108 -39 -162 l15
-28 -58 1 c-85 2 -86 2 -73 -14 7 -8 48 -29 93 -47 63 -25 84 -39 97 -63 9
-16 33 -49 55 -73 28 -32 34 -43 22 -43 -9 0 -99 20 -199 44 -264 64 -482 101
-664 113 -51 3 -91 8 -89 11 11 10 258 0 349 -14 95 -15 121 -14 101 5 -17 17
-209 35 -374 34 -132 -1 -228 -9 -480 -42 -173 -22 -331 -45 -350 -51 -19 -5
-57 -11 -85 -11 -35 -2 -41 -3 -20 -7 25 -3 7 -12 -100 -49 -71 -24 -176 -57
-231 -73 -56 -16 -121 -37 -143 -46 -23 -9 -44 -14 -47 -12 -2 3 2 31 11 64 8
32 15 82 15 111 0 29 4 53 8 53 5 0 19 -11 32 -25 13 -14 20 -25 16 -25 -17 0
26 -59 53 -69 24 -10 34 -10 59 3 17 9 40 16 51 16 11 0 56 12 100 26 83 27
98 42 69 73 -11 11 -8 12 13 7 18 -4 31 0 42 12 16 17 15 21 -16 62 -29 41
-32 43 -35 21 -2 -12 4 -31 12 -40 20 -22 21 -37 1 -21 -13 10 -19 10 -35 -5
-24 -22 -56 -12 -202 62 -142 72 -174 104 -220 223 -38 96 -41 123 -10 79 9
-13 52 -62 96 -109 43 -47 88 -97 99 -112 12 -16 25 -28 29 -28 20 0 -30 70
-121 169 -54 58 -131 156 -171 216 -112 168 -152 216 -315 383 -163 165 -162
162 -20 115 44 -14 107 -32 140 -39 48 -10 53 -12 25 -13 -62 -2 -18 -20 65
-26 44 -4 126 -15 183 -26 67 -12 148 -19 229 -19 135 0 156 -5 56 -14 -102
-9 -236 -77 -216 -110 4 -5 12 -1 18 8 13 17 100 39 206 51 44 5 58 4 68 -9
20 -23 62 -20 94 9 42 36 192 81 360 110 190 32 229 32 270 1 74 -56 237 -71
504 -46 119 11 124 10 190 -14 37 -13 127 -45 198 -70 72 -26 137 -49 145 -52
11 -4 12 -7 2 -13 -14 -8 68 -34 143 -45 46 -7 341 -36 367 -36 10 0 46 24 80
53 126 106 233 167 293 167 21 0 34 4 30 10 -3 6 -23 10 -43 10 l-37 0 30 25
c17 14 113 66 215 116 228 112 254 117 485 100 175 -13 294 -34 306 -53 36
-58 95 -118 115 -118 33 0 31 24 -6 94 -17 31 -28 56 -26 56 3 0 -8 30 -25 66
l-29 66 87 -7 c49 -4 110 -9 136 -10 26 -1 51 -6 55 -10 4 -4 -9 -4 -28 0
l-35 8 45 -35 c62 -47 79 -56 56 -30 -11 12 -16 22 -11 22 4 0 2 7 -5 15 -15
18 -13 18 31 4 95 -30 116 -50 129 -121 8 -42 2 -47 -25 -18 -15 17 -19 17
-32 5 -18 -18 -13 -35 68 -260 33 -93 80 -225 104 -291 44 -123 77 -187 111
-214 13 -11 16 -11 10 -1 -5 7 -10 30 -13 50 -2 20 -31 117 -63 216 -63 192
-90 291 -90 340 l0 30 64 -3 64 -4 12 -71 c10 -65 43 -238 56 -293 3 -12 -2
-28 -11 -37 -14 -15 -11 -22 36 -89 28 -40 75 -100 103 -133 49 -58 46 -59
-25 -4 -19 14 -47 31 -64 38 -35 15 -30 10 50 -49 33 -25 137 -119 230 -210
202 -196 355 -335 355 -323 0 5 -105 113 -234 240 -207 204 -267 271 -266 300
0 4 7 -1 15 -11 8 -11 15 -16 15 -12 0 4 -14 24 -31 44 -17 21 -39 59 -49 85
-17 45 -16 56 6 40 5 -5 -1 2 -13 14 -44 43 -22 43 35 1 184 -138 354 -282
477 -406 76 -78 143 -148 147 -156 4 -8 45 -45 91 -82 45 -38 143 -127 217
-199 97 -93 173 -156 269 -220 74 -50 141 -101 150 -114 15 -24 15 -24 -9 -12
-22 11 -21 9 5 -13 17 -14 53 -36 80 -50 28 -14 65 -35 82 -46 l33 -22 -1 172
0 172 -122 123 c-67 68 -111 115 -97 105 14 -10 48 -42 75 -70 28 -28 71 -70
98 -92 l47 -40 0 75 0 75 -47 28 c-132 76 -494 387 -618 530 -81 94 -95 103
-95 60 0 -31 19 -85 42 -118 10 -14 18 -36 18 -47 0 -53 83 -171 131 -186 10
-4 19 -11 19 -16 0 -12 -27 2 -57 31 -37 34 -27 1 19 -65 54 -79 137 -165 221
-228 37 -29 67 -55 67 -60 0 -4 4 -6 9 -3 5 3 11 -1 14 -9 8 -18 -19 -9 -92
34 -139 82 -475 373 -505 437 -11 24 -30 45 -48 53 -26 12 -60 48 -200 213
-62 73 -171 150 -207 146 -34 -4 -38 -34 -13 -87 11 -23 18 -41 15 -41 -3 0
-44 33 -92 73 -47 39 -110 90 -138 111 -56 43 -58 47 -83 201 -19 117 -24 114
88 55 53 -29 117 -63 142 -77 25 -14 36 -17 25 -8 -11 9 -73 45 -138 81 -64
36 -121 73 -126 82 -11 20 -18 89 -10 97 3 3 53 -15 111 -39 159 -67 348 -125
461 -143 145 -22 366 -22 502 0 106 18 296 74 303 89 2 5 23 8 47 8 37 0 52
-7 102 -48 32 -27 75 -58 96 -71 l37 -23 0 142 c0 129 -2 145 -24 188 -68 134
-271 243 -529 283 -94 14 -311 6 -437 -17 -47 -9 -101 -16 -120 -17 -33 -1
-399 130 -445 159 -11 7 -83 39 -160 72 -165 71 -222 98 -540 262 -132 68
-265 140 -295 161 -57 38 -142 122 -175 173 -11 16 -34 35 -53 43 -31 13 -36
12 -53 -3 -15 -13 -18 -25 -14 -46 4 -15 4 -28 1 -28 -4 0 -38 16 -77 35 -98
50 -347 152 -519 214 -80 28 -215 78 -300 111 -341 130 -575 203 -745 234 -44
8 -108 26 -143 41 -148 62 -342 90 -378 54 -15 -15 -12 -19 43 -44 121 -56
317 -114 543 -160 229 -46 503 -139 533 -179 13 -18 48 -34 135 -61 469 -147
656 -217 739 -279 32 -24 88 -60 126 -80 37 -21 67 -44 67 -52 0 -7 -11 -21
-25 -30 -68 -44 22 -133 96 -94 10 6 19 17 19 25 0 7 4 16 9 19 10 7 158 -88
261 -167 51 -39 66 -46 68 -33 2 9 6 16 9 16 6 0 108 -109 173 -185 23 -27 69
-78 101 -111 33 -34 59 -66 59 -72 0 -8 -61 -27 -64 -20 -1 2 -12 18 -25 37
-18 26 -20 33 -8 28 26 -10 20 1 -17 34 -19 17 -33 36 -30 43 5 13 -35 46 -55
46 -11 0 -41 -56 -41 -76 0 -10 -10 -10 -49 1 -27 7 -55 16 -61 20 -7 4 -4 -5
5 -19 10 -15 34 -36 54 -47 20 -11 59 -35 88 -53 l52 -33 -121 5 -121 5 7 -27
c3 -14 9 -37 12 -51 l6 -25 -41 15 c-35 12 -309 44 -390 45 -25 1 -24 2 9 20
98 54 -127 -13 -392 -116 -106 -41 -210 -77 -231 -81 l-39 -6 21 41 c20 40 27
72 15 72 -19 0 -64 -38 -85 -71 -13 -22 -32 -42 -42 -45 -13 -4 -17 -12 -14
-25 7 -25 -21 -44 -166 -115 -92 -45 -125 -56 -162 -56 -65 2 -262 55 -332 90
-111 57 -193 75 -337 76 -72 1 -172 -3 -222 -8 -60 -6 -112 -5 -155 2 -35 6
-146 16 -247 22 -213 13 -356 3 -552 -37 -69 -14 -156 -25 -195 -26 -59 0 -64
-1 -30 -7 33 -6 25 -8 -45 -10 l-85 -4 75 -5 75 -6 -72 -14 c-58 -11 -86 -12
-141 -3 -92 15 -175 43 -164 54 12 12 190 15 257 6 42 -6 45 -6 20 4 -42 15
-245 14 -333 -1 -82 -15 -95 -13 -372 45 -234 49 -237 50 -318 105 -85 57
-115 64 -57 14 22 -19 35 -35 29 -35 -13 0 -107 62 -141 93 -13 11 -26 17 -30
13 -13 -13 12 -40 63 -69 l49 -28 -86 7 c-124 9 -307 -17 -412 -58 -53 -21
-19 -18 59 4 69 20 102 23 259 23 132 0 185 -3 200 -13 19 -13 19 -13 -5 -7
-14 3 -84 9 -156 12 -128 6 -133 5 -226 -26 -106 -35 -233 -96 -326 -156 -75
-49 -83 -69 -9 -25 102 61 213 113 302 143 76 26 109 31 215 34 153 5 239 -5
254 -30 8 -13 8 -20 -3 -26 -10 -6 -4 -11 20 -16 54 -12 98 -39 184 -113 97
-83 148 -142 250 -287 80 -114 123 -192 145 -260 7 -22 22 -58 33 -80 l19 -40
-30 29 c-17 16 -29 32 -27 36 2 4 -4 16 -13 26 -10 10 -79 96 -153 189 -74 94
-158 191 -187 216 -59 53 -219 146 -307 179 -80 29 -219 60 -275 59 -63 0 -36
-12 85 -39 55 -12 126 -33 158 -46 88 -35 218 -126 272 -190 56 -66 36 -59
-50 17 -162 142 -320 199 -555 199 -136 0 -234 -17 -299 -49 -55 -28 -176
-134 -206 -179 -13 -20 -28 -57 -34 -80 -5 -24 -18 -52 -29 -63 -13 -11 -18
-26 -15 -39 5 -17 1 -20 -25 -20 -17 0 -32 6 -35 13 -4 11 -10 1 -23 -41 -2
-8 -13 -16 -24 -19 -24 -6 -24 -5 -5 -50 35 -84 7 -181 -44 -153 -33 17 -28
122 14 299 19 80 51 220 70 311 55 253 49 238 101 261 25 10 59 19 74 19 16 0
31 4 35 9 3 6 61 37 128 71 67 34 133 70 147 81 l25 20 -40 -6 c-22 -4 -62 -8
-90 -9 -27 -1 -56 -4 -63 -7 -8 -2 -19 3 -25 12 -9 14 2 29 59 84 88 85 69 97
-28 17 -74 -60 -108 -82 -127 -82 -19 0 -12 25 12 39 12 7 43 30 70 49 38 29
46 40 40 57 -3 11 -6 30 -5 43 2 31 -16 28 -55 -10 -31 -30 -34 -31 -51 -15
-21 19 -59 22 -82 7 -13 -9 -10 -14 14 -34 l28 -24 -46 -31 c-26 -18 -72 -43
-102 -57 -31 -14 -76 -40 -100 -58 -66 -50 -176 -104 -181 -88 -3 6 -12 12
-20 12 -9 0 -13 -6 -9 -15 8 -21 -36 -46 -148 -85 -189 -67 -319 -91 -568
-105 -69 -4 -108 -3 -108 3 0 6 57 33 128 60 137 54 405 173 400 178 -2 2 -42
-13 -89 -31 -47 -19 -101 -38 -119 -42 l-34 -6 22 23 c12 13 27 39 33 59 32
100 82 159 205 241 87 59 125 76 195 84 127 16 389 57 415 66 16 5 51 16 77
24 26 8 45 11 42 6 -11 -17 -164 -121 -185 -125 -21 -4 -311 -165 -297 -165 4
0 22 7 40 16 21 12 32 13 35 5 5 -16 23 -14 98 11 54 18 67 19 74 8 5 -8 6
-19 2 -25 -3 -6 0 -6 9 1 8 6 27 14 44 18 40 10 55 24 55 50 0 30 36 61 170
146 63 41 149 99 190 130 41 31 98 69 125 85 28 15 88 58 135 95 94 75 306
208 428 269 98 49 335 149 569 240 212 82 491 207 586 262 38 21 73 39 78 39
5 0 9 4 9 8 0 17 166 74 263 91 65 12 87 7 87 -20 0 -15 7 -19 34 -19 18 0 39
-7 46 -15 7 -8 19 -15 28 -15 22 0 232 -86 334 -137 72 -35 91 -50 107 -80 10
-21 28 -47 40 -57 20 -18 19 -15 -4 27 -15 25 -25 54 -24 64 2 10 -1 29 -6 43
l-9 25 -5 -23 c-6 -24 -6 -24 -31 -4 -25 19 -243 111 -350 148 -48 17 -57 24
-66 54 l-12 35 -93 2 c-62 1 -118 -4 -164 -16z m950 -57 c85 -17 204 -63 164
-64 -31 0 -235 52 -294 75 l-40 15 50 -6 c28 -3 82 -12 120 -20z m-3286 -1012
c-9 -4 -15 -15 -13 -24 2 -14 -15 -23 -84 -44 -48 -14 -92 -27 -99 -29 -31
-10 -306 -55 -310 -51 -3 2 18 16 46 30 138 71 318 125 411 125 36 0 58 -3 49
-7z m6041 -188 c81 -39 387 -162 594 -240 71 -26 147 -60 171 -76 57 -38 227
-98 299 -106 l60 -7 -42 -28 c-30 -19 -42 -34 -42 -51 0 -31 31 -36 224 -36
146 0 151 -1 218 -31 37 -18 68 -35 68 -39 0 -9 -188 -58 -276 -72 -137 -21
-300 -1 -545 66 -105 28 -136 40 -252 94 -77 35 -78 36 -53 49 31 16 35 53 6
60 -10 3 -26 16 -35 29 -17 27 -53 32 -61 9 -9 -23 -44 -19 -44 5 0 21 -29 44
-70 55 -14 3 -61 24 -106 46 -60 30 -98 57 -150 110 -55 57 -63 68 -37 55 38
-19 73 -21 73 -3 0 7 -27 36 -60 65 -33 29 -74 73 -91 98 l-31 46 53 -32 c30
-17 88 -47 129 -66z m-6245 -70 c-29 -22 -196 -106 -202 -101 -2 3 28 21 68
42 39 20 86 45 103 56 37 23 59 25 31 3z m2 -80 c-3 -3 -12 -4 -19 -1 -8 3 -5
6 6 6 11 1 17 -2 13 -5z m277 -19 c-6 -13 -81 -67 -133 -95 -30 -16 -48 1 -24
22 10 9 43 32 73 52 57 38 94 47 84 21z m7431 -125 c149 -27 304 -97 361 -163
45 -53 45 -83 2 -90 -18 -2 -34 -1 -36 4 -6 15 -28 10 -51 -10 -13 -11 -52
-24 -94 -32 -82 -13 -76 -16 -237 89 -84 54 -253 141 -339 175 -25 9 -42 19
-39 22 23 23 312 27 433 5z m-7641 -35 c-18 -61 -20 -64 -47 -57 -49 13 -49
28 1 65 26 20 50 36 54 36 3 1 0 -19 -8 -44z m226 34 c0 -9 -171 -149 -182
-149 -9 0 -11 121 -3 142 4 11 28 14 95 15 50 0 90 -3 90 -8z m90 -23 c0 -2
-9 -6 -20 -9 -11 -3 -18 -1 -14 4 5 9 34 13 34 5z m6927 -41 c51 -20 91 -41
88 -46 -3 -4 -11 -6 -18 -4 -86 26 -214 69 -222 73 -11 7 34 22 50 17 6 -1 52
-19 102 -40z m-7014 15 c-3 -11 -9 -20 -13 -20 -5 0 -23 -16 -41 -35 -21 -21
-43 -35 -58 -35 -24 0 -24 0 -5 21 15 17 113 89 120 89 1 0 0 -9 -3 -20z
m5380 -17 c-7 -2 -19 -2 -25 0 -7 3 -2 5 12 5 14 0 19 -2 13 -5z m107 -14 c11
-7 1 -8 -35 -3 -27 4 -52 8 -54 10 -10 9 76 3 89 -7z m667 -10 c13 -5 22 -13
19 -18 -9 -14 -58 -20 -84 -10 -14 5 -27 7 -30 4 -8 -8 46 -83 78 -106 46 -34
39 -49 -23 -49 l-53 0 -11 77 c-8 55 -8 80 -1 84 6 4 8 14 5 23 -6 15 -1 16
34 11 23 -4 52 -10 66 -16z m-6415 -41 c-6 -32 -36 -87 -43 -82 -5 3 -9 0 -9
-6 0 -6 -20 -31 -44 -54 -24 -24 -56 -66 -72 -95 -16 -28 -32 -51 -35 -51 -14
0 -31 62 -33 122 -2 35 -6 70 -9 78 -9 20 0 31 59 71 46 32 55 35 120 33 52
-2 68 -5 66 -16z m5023 -9 c-16 -11 -66 -38 -110 -61 -73 -37 -189 -112 -364
-234 -50 -35 -72 -44 -105 -44 -73 0 -358 42 -446 65 -85 23 -256 89 -275 107
-16 15 68 0 205 -37 69 -19 166 -41 215 -50 145 -26 141 -25 124 -36 -23 -14
10 -11 98 10 94 22 209 69 289 117 33 20 84 46 114 59 30 13 102 46 160 74
111 54 145 64 95 30z m-5863 1 c6 0 9 -2 7 -5 -9 -8 -139 -55 -139 -50 0 12
96 65 108 60 8 -3 19 -5 24 -5z m8366 -43 l74 -42 -129 -3 c-132 -3 -193 2
-193 18 0 4 28 24 63 44 73 42 83 41 185 -17z m-898 -43 l25 -15 -25 7 c-14 3
-32 10 -40 15 -13 7 -13 8 0 8 8 0 26 -6 40 -15z m-5325 -95 c11 -13 -10 3
-47 36 -38 32 -68 60 -68 63 0 6 93 -73 115 -99z m670 -15 l60 -14 -69 6 c-77
7 -135 23 -81 23 17 0 57 -7 90 -15z m5855 -63 c-18 -11 -133 -41 -151 -40
-16 0 129 46 151 47 13 1 13 0 0 -7z m-7005 -41 c16 -7 13 -9 -15 -8 -19 0
-48 4 -65 8 -27 7 -26 8 15 8 25 0 54 -3 65 -8z m6828 -7 c-7 -2 -19 -2 -25 0
-7 3 -2 5 12 5 14 0 19 -2 13 -5z m-7149 -9 c9 -3 13 -11 9 -17 -6 -10 19 -8
112 9 24 4 44 -4 93 -35 84 -55 161 -93 252 -125 102 -37 192 -98 246 -170 68
-89 124 -188 140 -248 9 -29 24 -84 35 -123 13 -44 22 -118 26 -197 l6 -128
-29 0 c-39 0 -107 25 -115 42 -3 7 -18 38 -32 68 -15 30 -27 62 -28 70 -1 8
-4 5 -7 -8 -7 -22 -8 -21 -74 23 -107 72 -305 157 -598 256 -109 37 -185 58
-201 55 -34 -6 -129 38 -136 64 -3 10 -14 22 -25 26 -13 4 -18 13 -16 27 3 20
9 22 68 22 56 1 81 8 173 49 59 26 126 50 148 53 41 6 63 22 32 24 -44 3 -79
-4 -139 -27 -36 -13 -67 -24 -70 -24 -3 0 6 15 19 33 31 40 60 97 54 104 -9 9
-72 -30 -102 -63 -21 -23 -43 -35 -72 -40 l-42 -6 5 38 c3 22 10 53 15 70 12
40 115 139 171 164 47 21 58 23 82 14z m445 -18 c93 -31 140 -60 258 -156 167
-137 195 -167 212 -227 7 -23 -12 -8 -92 74 -56 56 -105 109 -109 118 -15 26
-121 92 -249 155 -129 64 -136 75 -20 36z m-88 -18 c44 -14 156 -90 240 -162
l44 -36 -91 42 c-50 24 -89 46 -87 50 2 5 -29 23 -69 42 -40 19 -84 44 -98 55
l-25 21 26 0 c14 0 41 -5 60 -12z m-966 -75 c-2 -10 -9 -47 -15 -83 -16 -93
-18 -97 -54 -120 -18 -11 -36 -20 -39 -20 -2 0 1 17 9 38 7 20 13 56 14 80 0
36 6 49 38 81 42 44 52 49 47 24z m1699 -73 c43 -55 71 -100 62 -100 -2 0 -20
21 -39 48 -19 26 -50 67 -68 92 -18 25 -25 38 -15 30 10 -8 37 -39 60 -70z
m-223 -12 c16 -29 2 -21 -22 15 -17 23 -18 28 -6 18 10 -8 23 -23 28 -33z
m-133 -97 c69 -51 146 -149 172 -219 52 -139 90 -303 90 -393 0 -48 -4 -90 -9
-93 -11 -7 -27 64 -36 150 -6 67 -104 341 -149 418 -15 25 -49 75 -76 111 -27
36 -48 65 -46 65 1 0 26 -17 54 -39z m4919 -7 c-3 -3 -12 -4 -19 -1 -8 3 -5 6
6 6 11 1 17 -2 13 -5z m-6279 -164 c-3 -110 -5 -120 -22 -120 -18 0 -18 6 -12
106 8 112 12 134 28 134 5 0 8 -50 6 -120z m412 110 c-20 -13 -60 -13 -60 0 0
6 17 10 38 10 27 0 33 -3 22 -10z m-183 -6 c-3 -3 -12 -4 -19 -1 -8 3 -5 6 6
6 11 1 17 -2 13 -5z m1317 -110 c3 -8 2 -12 -4 -9 -6 3 -10 10 -10 16 0 14 7
11 14 -7z m264 -124 l64 -75 -6 -135 c-3 -74 -11 -160 -19 -190 l-14 -55 -21
45 c-11 25 -29 77 -40 117 -16 59 -18 74 -7 83 10 8 15 3 24 -21 6 -18 11 -42
11 -54 0 -25 25 -52 34 -37 3 5 -1 18 -9 28 -8 10 -15 33 -15 51 0 17 -5 44
-11 60 -6 15 -19 60 -30 98 -10 39 -30 97 -43 130 -26 62 -24 96 3 55 9 -14
45 -58 79 -100z m-137 29 c12 -38 19 -72 16 -75 -5 -6 -47 112 -47 133 0 29
11 9 31 -58z m4858 9 c24 -10 25 -11 6 -18 -34 -14 -53 -11 -82 16 l-28 25 39
-6 c21 -3 50 -11 65 -17z m-524 2 c4 -6 -9 -10 -32 -10 -28 0 -34 3 -23 10 20
13 47 13 55 0z m-5626 -37 c0 -10 -4 -27 -9 -38 -7 -16 -9 -13 -9 18 -1 20 4
37 9 37 6 0 10 -8 9 -17z m5704 -5 c9 -31 2 -33 -11 -3 -6 14 -8 25 -3 25 5 0
11 -10 14 -22z m-5374 -78 c101 -50 182 -93 179 -95 -5 -6 -128 40 -187 69
-35 18 -51 22 -59 14 -8 -8 -27 -5 -68 11 -31 12 -60 18 -63 15 -3 -4 1 -9 9
-12 18 -6 69 -59 122 -125 32 -41 38 -56 38 -97 0 -73 28 -146 77 -200 46 -52
130 -100 173 -100 40 0 137 36 192 71 27 18 52 29 55 25 10 -9 -45 -63 -79
-77 -16 -6 -27 -17 -25 -23 6 -17 59 -18 87 -1 14 8 46 24 72 36 26 12 45 25
42 30 -3 5 2 9 11 9 19 0 79 -30 72 -36 -2 -2 -39 -17 -83 -33 -85 -31 -105
-51 -52 -51 l33 -1 -40 -14 c-22 -7 -67 -19 -100 -25 -33 -7 -74 -19 -92 -27
-26 -12 -41 -13 -88 -3 -76 16 -229 95 -345 178 -79 56 -100 77 -123 123 -26
48 -28 61 -23 121 2 37 1 70 -4 73 -16 10 8 160 33 213 6 12 19 22 31 22 12 0
104 -41 205 -90z m5299 58 c-6 -18 -28 -21 -28 -4 0 9 7 16 16 16 9 0 14 -5
12 -12z m167 -80 c-4 -24 -7 -56 -8 -71 0 -16 -3 -24 -7 -17 -4 6 -15 -18 -25
-52 -32 -114 -37 -129 -40 -126 -2 2 0 21 5 43 5 22 7 87 5 145 -2 58 -1 92 1
75 8 -43 24 -56 24 -18 0 31 21 63 42 63 7 0 8 -15 3 -42z m-5860 -33 c8 -74
22 -132 25 -100 2 20 19 -37 45 -154 8 -35 17 -73 20 -85 9 -33 -50 39 -81 99
-20 39 -25 43 -20 20 l6 -30 -25 30 c-28 34 -30 47 -13 78 6 12 12 45 13 72 3
113 5 135 14 135 5 0 12 -29 16 -65z m1715 24 c64 -43 125 -73 201 -98 111
-36 114 -45 24 -64 -68 -15 -80 -16 -94 -3 -9 8 -41 25 -71 39 -81 36 -120 81
-120 138 0 26 7 24 60 -12z m4001 -7 c19 5 31 -75 25 -179 -6 -133 -34 -182
-138 -243 -42 -25 -89 -56 -104 -70 l-26 -25 21 45 22 45 -48 -51 c-53 -57
-84 -70 -177 -80 -47 -5 -72 -2 -97 9 -19 9 -65 29 -102 46 -37 16 -85 47
-106 68 -21 21 -47 43 -57 49 -17 10 -17 12 -2 35 9 14 35 34 58 44 41 18 42
18 52 1 47 -84 144 -142 254 -152 88 -8 133 5 157 46 21 35 13 39 -20 9 -20
-20 -120 -45 -131 -34 -2 2 23 18 57 34 34 17 61 36 61 42 0 5 7 9 17 7 11 -2
25 13 42 47 21 40 27 68 31 149 l5 99 65 27 c36 14 74 31 85 37 13 7 24 8 31
2 7 -5 18 -8 25 -7z m-1940 -13 c21 -7 40 -18 43 -26 4 -11 0 -10 -24 2 -16 8
-36 15 -44 15 -8 0 -18 5 -21 10 -8 13 -1 13 46 -1z m-3411 -19 c40 -20 40
-20 23 -46 l-17 -26 -33 36 c-53 57 -42 71 27 36z m7203 -120 c84 -80 148
-163 134 -176 -6 -6 -88 50 -140 96 -25 22 -50 40 -55 40 -6 0 -14 4 -17 10
-4 6 1 7 11 3 11 -4 3 14 -24 52 -45 63 -55 93 -24 76 9 -5 61 -51 115 -101z
m-3584 36 c11 -13 11 -16 -1 -16 -18 0 -68 38 -68 51 0 12 52 -14 69 -35z
m-3479 -33 c0 -8 -5 -11 -11 -7 -7 4 -10 1 -7 -7 8 -26 124 -87 204 -109 104
-27 115 -35 89 -54 -36 -26 -124 -49 -172 -43 -108 12 -184 133 -144 231 9 23
14 26 26 16 8 -7 15 -19 15 -27z m3932 -20 c4 -46 2 -61 -6 -52 -9 11 -16 99
-8 99 6 0 12 -21 14 -47z m1448 -55 l0 -103 -35 -28 c-34 -27 -35 -27 -54 -8
-19 19 -19 20 3 63 13 23 33 73 46 111 13 37 27 67 32 67 4 0 8 -46 8 -102z
m-1545 82 c-3 -5 -11 -10 -16 -10 -6 0 -7 5 -4 10 3 6 11 10 16 10 6 0 7 -4 4
-10z m1102 -5 c7 -20 -15 -131 -32 -166 -18 -35 -64 -53 -113 -44 -37 6 -113
45 -161 83 l-24 19 51 -5 c71 -6 97 2 150 52 83 75 117 92 129 61z m-1417 -5
c10 0 20 -9 23 -21 5 -18 11 -20 37 -14 29 6 30 5 25 -18 -5 -18 -1 -29 17
-43 26 -21 43 -54 27 -54 -30 0 -146 65 -175 98 -43 48 -44 67 -3 58 17 -3 39
-6 49 -6z m-724 -10 c42 -16 23 -21 -21 -5 -22 8 -32 14 -23 15 9 0 29 -5 44
-10z m-4031 -29 c-3 -11 -34 -46 -68 -77 -48 -43 -100 -75 -232 -139 -210
-102 -218 -105 -185 -70 14 15 45 42 70 60 65 47 412 256 417 251 3 -2 2 -14
-2 -25z m4815 19 c0 -5 -4 -10 -10 -10 -5 0 -10 5 -10 10 0 6 5 10 10 10 6 0
10 -4 10 -10z m215 -10 c3 -5 14 -10 24 -10 27 0 48 -27 32 -43 -9 -9 -16 -7
-30 12 -18 24 -19 24 -46 7 -38 -25 -69 -18 -73 17 -3 26 -2 27 42 27 25 0 48
-4 51 -10z m-544 -61 c101 -28 186 -53 189 -56 3 -3 -6 -3 -20 0 -14 2 -74 14
-135 26 -188 36 -216 43 -226 63 -5 10 -6 18 -1 18 4 0 91 -23 193 -51z
m-2801 16 c17 -9 30 -18 30 -20 0 -13 -40 -3 -61 15 -29 23 -10 26 31 5z
m3405 -45 c4 -6 16 -10 28 -9 47 4 53 -1 70 -54 24 -75 23 -80 -13 -62 -37 19
-40 19 -40 -5 0 -40 -18 -18 -44 54 -14 41 -26 77 -26 80 0 10 18 7 25 -4z
m191 -28 c-10 -10 -29 15 -21 28 6 9 10 8 17 -4 6 -10 7 -20 4 -24z m577 -1
c24 -22 63 -51 88 -65 50 -29 32 -36 -22 -8 -47 24 -119 84 -119 100 0 19 7
15 53 -27z m-848 -36 c0 -21 -5 -40 -11 -42 -13 -4 -29 62 -19 78 14 21 30 1
30 -36z m483 24 c-10 -5 -18 -17 -18 -25 0 -17 -31 -16 -37 2 -4 11 32 32 57
33 12 0 11 -2 -2 -10z m-682 -10 c87 -15 199 -71 219 -108 23 -46 17 -59 -13
-26 -28 32 -63 57 -97 68 -17 6 -17 4 4 -13 13 -11 19 -20 15 -20 -20 0 -100
36 -112 50 -11 12 -12 13 -6 0 9 -16 4 -13 -59 37 -33 26 -31 27 49 12z
m-5251 -13 c12 -12 -1 -25 -86 -92 -105 -84 -157 -111 -186 -99 -15 6 -15 8
-3 13 8 2 49 35 90 71 147 130 157 136 185 107z m1709 -67 c50 -30 50 -31 16
-25 -35 6 -110 72 -110 97 0 6 9 0 21 -15 12 -15 44 -40 73 -57z m4136 46 c0
-7 6 -15 12 -17 8 -3 4 -9 -10 -17 -16 -9 -22 -9 -22 0 0 11 -16 9 -52 -6 -14
-5 -18 -2 -18 13 0 14 12 25 38 35 39 16 52 14 52 -8z m-4585 -114 c30 -58 52
-107 51 -109 -2 -2 -19 6 -37 17 -43 26 -48 26 -41 -1 9 -35 -18 -11 -39 36
-25 54 -28 196 -4 176 9 -7 40 -60 70 -119z m1333 97 c-6 -18 -28 -21 -28 -4
0 9 7 16 16 16 9 0 14 -5 12 -12z m-1119 -111 c40 -27 70 -51 67 -54 -3 -3
-43 13 -89 37 -83 41 -117 76 -117 117 0 14 7 11 33 -17 18 -19 66 -57 106
-83z m1401 95 c0 -20 -62 -72 -86 -72 -22 0 -37 30 -27 55 10 28 113 43 113
17z m-517 -31 c30 -11 36 -38 11 -48 -18 -7 -76 23 -105 53 l-20 22 43 -8 c24
-5 55 -13 71 -19z m4617 19 c0 -5 -5 -10 -11 -10 -5 0 -7 5 -4 10 3 6 8 10 11
10 2 0 4 -4 4 -10z m-1296 -24 c-3 -9 -10 -13 -15 -10 -5 3 -3 11 4 19 15 16
19 13 11 -9z m344 -1 c17 -14 34 -25 39 -25 5 0 18 -7 29 -16 10 -8 13 -13 6
-9 -7 4 -18 2 -25 -3 -8 -6 -33 -7 -70 -1 -48 8 -70 6 -121 -9 -50 -15 -66
-17 -79 -7 -22 16 -21 25 1 25 9 1 46 16 82 35 78 41 99 43 138 10z m-3428 1
c0 -2 -7 -9 -15 -16 -12 -10 -15 -10 -15 4 0 9 7 16 15 16 8 0 15 -2 15 -4z
m-142 -28 c-14 -20 -28 -27 -28 -13 0 3 0 12 0 20 0 9 9 15 21 15 20 0 20 -2
7 -22z m-1063 -47 c18 -16 56 -41 84 -56 28 -16 49 -30 46 -33 -9 -9 -114 51
-146 84 -40 42 -29 45 16 5z m3965 4 c14 -8 19 -14 10 -14 -8 0 -24 6 -34 14
-25 19 -9 19 24 0z m-5660 -56 c-14 -11 -34 -28 -45 -38 -34 -29 -45 -33 -45
-18 0 7 12 20 27 28 15 8 35 22 45 32 10 9 24 17 31 17 6 -1 1 -10 -13 -21z
m7384 -6 c-4 -16 -12 -37 -17 -48 -6 -11 -13 -54 -16 -95 -6 -72 -7 -75 -34
-80 -17 -3 -35 -17 -47 -37 -17 -29 -156 -143 -174 -143 -4 0 11 21 32 48 22
26 61 83 87 127 26 44 62 101 80 127 19 25 43 65 55 87 23 47 44 55 34 14z
m-4304 -3 c12 -8 10 -14 -15 -40 -16 -16 -35 -30 -42 -30 -7 0 -13 -4 -13 -10
0 -14 -59 -42 -76 -36 -21 8 -17 37 6 43 11 3 20 10 20 15 0 5 -4 6 -10 3 -12
-7 -13 5 -2 22 8 12 75 40 102 42 8 0 22 -4 30 -9z m-1204 -46 c18 -14 18 -14
-6 -3 -31 14 -36 19 -24 19 6 0 19 -7 30 -16z m-295 -31 c13 -16 12 -17 -3 -4
-17 13 -22 21 -14 21 2 0 10 -8 17 -17z m1166 -9 c-3 -3 -12 -4 -19 -1 -8 3
-5 6 6 6 11 1 17 -2 13 -5z m3167 -66 c-3 -4 -1 -8 3 -8 5 0 16 -20 25 -45 26
-69 5 -53 -31 23 -35 78 -39 98 -12 62 11 -13 17 -28 15 -32z m-4221 -162 c2
3 7 -2 10 -11 4 -8 4 -15 1 -15 -20 0 -121 69 -171 116 -21 20 -53 79 -53 98
0 12 33 -15 104 -87 57 -58 106 -104 109 -101z m4724 198 c-3 -3 -12 -4 -19
-1 -8 3 -5 6 6 6 11 1 17 -2 13 -5z m182 -20 c2 -2 -30 -4 -72 -4 -42 0 -79 5
-82 10 -5 8 18 9 72 4 43 -4 80 -8 82 -10z m-309 -58 c-7 -7 -14 -6 -21 1 -9
9 -7 12 9 10 14 -1 18 -5 12 -11z m-3773 -31 c0 -8 -3 -13 -5 -10 -3 3 -19 -4
-36 -14 -105 -65 -250 -97 -278 -63 -26 31 -16 47 37 55 28 5 91 16 140 26
117 24 142 25 142 6z m-722 -25 c10 -11 16 -20 13 -20 -3 0 -13 9 -23 20 -10
11 -16 20 -13 20 3 0 13 -9 23 -20z m5519 -97 l22 -17 -25 -46 c-29 -52 -85
-130 -130 -179 -31 -35 -43 -32 -16 3 8 11 15 27 15 35 -1 14 -3 13 -14 -1
-19 -26 -40 -24 -24 3 11 17 10 22 -4 33 -18 13 -26 42 -9 32 4 -3 41 30 82
74 41 44 75 80 77 80 2 0 13 -8 26 -17z m-5658 -128 c14 -27 14 -28 -1 -11 -8
11 -15 17 -15 13 0 -15 -38 29 -55 63 l-17 35 37 -35 c20 -19 43 -48 51 -65z
m-1528 13 c12 -23 32 -115 32 -146 0 -31 -19 4 -44 82 -30 92 -30 86 -13 86 8
0 19 -10 25 -22z m-45 -62 c10 -29 28 -70 42 -90 14 -20 25 -40 25 -44 -1 -4
-59 -50 -131 -102 -153 -113 -229 -184 -212 -201 15 -15 25 -8 164 103 58 45
128 101 157 122 l53 39 48 -47 c25 -25 50 -46 54 -46 16 0 5 22 -28 57 -52 55
-44 89 33 140 19 13 25 13 38 2 15 -12 16 -11 10 9 -6 16 -3 22 9 22 9 0 15
-6 13 -12 -4 -26 14 -54 52 -80 22 -15 40 -31 39 -35 -1 -13 -213 -195 -237
-204 -35 -13 -142 -88 -196 -139 -27 -25 -73 -77 -102 -116 -29 -39 -71 -86
-93 -103 -47 -37 -111 -160 -111 -213 0 -75 65 -152 108 -129 14 7 32 -12 101
-107 50 -68 80 -117 73 -120 -40 -13 28 -144 143 -272 l40 -45 -48 45 c-27 25
-64 66 -84 93 -19 26 -40 47 -46 47 -19 0 -127 89 -127 105 0 8 7 18 16 23 15
8 15 12 0 39 -19 39 -79 64 -167 70 -60 5 -68 4 -82 -17 -12 -17 -13 -28 -6
-43 8 -13 8 -22 0 -30 -18 -18 -12 -28 10 -16 18 9 27 6 56 -18 20 -15 47 -43
61 -62 l26 -33 -37 16 c-21 8 -35 11 -32 6 3 -5 -8 -4 -25 1 -17 6 -36 9 -44
6 -27 -11 -156 305 -171 420 -11 85 9 156 62 216 l46 51 -6 115 c-4 91 -2 123
10 155 41 106 195 276 363 401 56 41 105 75 109 75 4 0 15 -24 24 -54z m1622
34 c3 -5 2 -10 -4 -10 -5 0 -13 5 -16 10 -3 6 -2 10 4 10 5 0 13 -4 16 -10z
m-2335 -45 c-35 -36 -50 -43 -50 -23 0 19 31 47 46 41 8 -3 14 0 14 6 0 6 5
11 12 11 7 0 -3 -16 -22 -35z m7740 -84 c-13 -16 -30 -33 -39 -36 -9 -3 -1 9
18 29 21 22 31 39 26 48 -6 10 -5 10 5 1 9 -9 7 -17 -10 -42z m2110 -26 c-7
-9 -15 -13 -17 -11 -7 7 7 26 19 26 6 0 6 -6 -2 -15z m227 -35 l22 -25 -44 0
-43 0 20 28 c11 16 21 27 22 25 0 -2 11 -14 23 -28z m-81 -62 c-9 -13 -21 -33
-28 -45 -6 -13 -15 -23 -20 -23 -11 0 -4 13 31 57 29 37 42 45 17 11z m-7633
-100 c31 -42 15 -43 -24 -2 -26 28 -30 35 -15 32 10 -1 28 -15 39 -30z m-1405
-121 l52 -32 -35 -28 c-33 -26 -34 -29 -20 -50 9 -15 11 -27 5 -37 -8 -12 -15
-9 -39 20 -23 28 -32 32 -42 23 -9 -9 -10 -21 -2 -46 6 -20 6 -42 1 -57 -6
-16 -5 -26 4 -33 8 -5 -10 -6 -46 -3 -55 6 -61 5 -88 -21 -43 -42 -35 -99 20
-127 15 -7 59 -21 97 -30 39 -9 79 -21 90 -26 11 -5 45 -14 75 -21 60 -13 93
-28 184 -83 33 -20 67 -36 75 -36 75 0 267 -142 461 -341 63 -64 141 -138 173
-164 66 -52 288 -201 387 -260 36 -21 112 -70 170 -108 58 -39 187 -111 288
-160 101 -49 182 -90 180 -92 -6 -4 -630 14 -635 19 -3 3 0 12 6 20 21 25 10
61 -18 61 -18 0 -26 -8 -35 -35 -13 -40 1 -38 -182 -22 -95 9 -128 17 -240 60
-293 114 -526 244 -699 391 -38 33 -74 60 -78 61 -17 0 -67 42 -62 50 3 5 -92
110 -212 232 -221 226 -294 316 -295 366 -2 55 52 181 92 217 12 11 43 25 68
31 40 10 42 12 17 13 -16 1 -37 6 -45 11 -12 8 -9 16 21 46 50 49 243 222 249
223 3 1 29 -14 58 -32z m-178 -20 c-8 -7 -55 -51 -104 -97 -85 -80 -88 -82
-55 -35 30 43 147 145 167 145 3 0 0 -6 -8 -13z m305 -78 c30 -17 55 -33 55
-35 0 -5 -85 38 -110 55 -32 22 3 9 55 -20z m-77 -227 c-23 -4 -78 25 -78 43
0 10 13 6 48 -13 31 -18 41 -28 30 -30z m408 -109 c44 -31 142 -99 219 -151
200 -135 425 -306 535 -407 52 -48 122 -110 155 -137 78 -65 87 -75 49 -53
-72 41 -251 175 -423 318 -249 206 -365 296 -503 388 -64 43 -119 83 -123 89
-14 23 17 7 91 -47z m-856 -235 c46 -62 106 -139 133 -170 27 -32 45 -58 40
-58 -4 0 -14 9 -21 20 -7 12 -16 18 -21 16 -9 -6 -59 56 -159 196 -54 75 -72
108 -58 108 2 0 41 -51 86 -112z m8943 15 c-15 -41 -79 -132 -127 -180 -49
-50 -74 -67 -61 -40 4 6 -1 3 -9 -7 -9 -11 -16 -23 -16 -28 0 -4 -5 -8 -11 -8
-8 0 -8 5 1 15 7 8 10 15 6 15 -8 0 54 81 133 172 63 74 98 98 84 61z m-9430
-108 c19 -38 34 -71 32 -73 -18 -19 -85 88 -85 137 0 34 12 20 53 -64z m476
-326 c44 -42 81 -80 81 -84 0 -4 -9 0 -20 10 -11 10 -20 16 -20 12 0 -3 -15
10 -34 28 -19 18 -38 34 -42 36 -5 2 -29 29 -54 59 -53 65 -29 48 89 -61z
m302 24 c13 -16 12 -17 -3 -4 -10 7 -18 15 -18 17 0 8 8 3 21 -13z m119 -13
c19 -16 31 -29 25 -29 -5 0 -26 13 -45 29 -19 16 -30 29 -25 29 6 0 26 -13 45
-29z m-65 -34 c6 2 47 -25 93 -61 45 -36 85 -64 90 -63 6 3 39 -22 122 -92 19
-16 14 -15 -20 5 l-45 26 50 -46 50 -47 -70 37 c-98 52 -231 158 -220 175 3 4
-5 16 -18 26 l-22 19 19 -22 c11 -13 15 -23 10 -23 -6 0 -27 21 -49 48 -21 26
-30 40 -19 31 10 -9 24 -15 29 -13z m2999 -128 c8 -13 17 -34 21 -48 6 -19 0
-14 -24 17 -17 24 -31 45 -31 48 0 13 21 3 34 -17z m5536 -78 c0 -16 -3 -30
-7 -30 -5 0 -8 14 -8 30 0 17 3 30 8 30 4 0 7 -13 7 -30z m-8930 -20 c0 -5 -4
-10 -10 -10 -5 0 -10 5 -10 10 0 6 5 10 10 10 6 0 10 -4 10 -10z m4603 -112
c62 -92 84 -134 74 -144 -2 -2 -33 1 -68 8 l-64 13 -6 55 c-18 150 -20 184
-11 175 5 -5 39 -54 75 -107z m-3708 -3 c67 -37 255 -121 385 -171 47 -18 80
-33 75 -34 -32 -1 -406 130 -487 171 -20 10 -45 31 -55 46 -10 14 -34 42 -53
61 l-35 35 55 -37 c30 -21 82 -53 115 -71z m8037 65 c-2 -16 -6 -30 -8 -30 -2
0 -4 14 -4 30 0 17 4 30 8 30 5 0 7 -13 4 -30z m-6692 -16 c0 -2 -9 0 -20 6
-11 6 -20 13 -20 16 0 2 9 0 20 -6 11 -6 20 -13 20 -16z m5813 -135 c16 -1 17
-3 5 -6 -23 -6 -30 -30 -13 -47 8 -7 11 -16 8 -20 -4 -3 -2 -6 4 -6 6 0 13 7
17 15 3 8 10 15 16 15 6 0 9 -3 6 -8 -2 -4 13 -6 35 -4 34 4 39 7 34 23 -4 11
-2 19 4 19 6 0 12 -21 12 -47 1 -30 4 -37 6 -20 2 15 11 27 19 27 8 0 14 -11
15 -27 l1 -28 10 28 c5 15 14 27 18 27 18 0 19 -19 5 -54 -9 -20 -13 -41 -10
-45 8 -13 -27 -23 -39 -11 -5 5 -15 10 -20 10 -6 0 -4 -5 4 -10 12 -8 10 -10
-8 -10 -19 0 -22 4 -17 20 4 11 2 20 -4 20 -6 0 -11 -4 -11 -10 0 -5 -15 -10
-32 -9 -31 1 -31 1 -8 8 20 7 14 9 -35 16 -44 6 -54 10 -36 15 14 3 26 11 28
17 3 8 -7 8 -36 1 -42 -11 -45 -15 -35 -42 5 -13 9 -14 20 -5 12 10 13 8 5
-14 -6 -15 -7 -28 -3 -30 4 -2 39 -5 77 -6 39 -2 72 -5 75 -8 5 -5 -356 4
-431 11 -88 9 -139 19 -139 28 0 5 -4 6 -10 3 -5 -3 -10 -2 -10 4 0 5 10 13
23 17 12 4 31 13 42 21 18 14 16 15 -25 9 -44 -6 -44 -5 -15 7 49 22 122 37
141 30 12 -4 15 -3 10 5 -8 14 37 27 55 16 7 -4 10 -3 6 3 -6 9 31 22 163 58
25 7 47 9 48 4 2 -5 13 -10 25 -10z m-7069 -74 c68 -26 186 -89 196 -105 3 -5
37 -17 75 -28 39 -11 87 -27 108 -35 27 -12 45 -14 63 -7 14 6 48 10 75 10 27
0 49 5 49 10 0 6 15 9 33 9 20 -1 25 -3 13 -6 -11 -3 -36 -15 -55 -28 -81 -50
-120 -66 -141 -55 -12 6 -17 16 -13 26 9 24 -18 36 -35 16 -7 -9 -11 -12 -7
-5 4 9 -3 11 -22 7 -135 -23 -127 -24 -205 23 -40 24 -84 56 -98 71 -14 16
-50 45 -81 65 -30 20 -66 48 -79 62 l-24 26 40 -15 c21 -8 70 -26 108 -41z
m7161 35 c-3 -5 -15 -10 -26 -10 -10 0 -19 5 -19 10 0 6 12 10 26 10 14 0 23
-4 19 -10z m-6938 -75 c43 -14 85 -30 93 -36 19 -13 1 -8 -112 31 -102 35 -88
39 19 5z m7073 1 c0 -3 -4 -8 -10 -11 -5 -3 -10 -1 -10 4 0 6 5 11 10 11 6 0
10 -2 10 -4z m-215 -36 c3 -5 2 -10 -4 -10 -5 0 -13 5 -16 10 -3 6 -2 10 4 10
5 0 13 -4 16 -10z m505 6 c0 -7 -122 -46 -139 -45 -9 0 13 11 49 24 64 23 90
29 90 21z m-7250 -37 c25 -14 -9 -10 -50 7 l-35 14 35 -6 c19 -4 42 -10 50
-15z m6795 1 c3 -5 1 -10 -4 -10 -6 0 -11 5 -11 10 0 6 2 10 4 10 3 0 8 -4 11
-10z m-4408 -27 c0 -9 -16 -13 -52 -13 -28 0 -56 -5 -63 -12 -8 -8 -12 -8 -12
-1 0 8 -14 7 -47 -3 -62 -19 -67 -10 -5 10 99 33 179 42 179 19z m56 10 c-7
-2 -19 -2 -25 0 -7 3 -2 5 12 5 14 0 19 -2 13 -5z m4437 -3 c0 -5 -2 -10 -4
-10 -3 0 -8 5 -11 10 -3 6 -1 10 4 10 6 0 11 -4 11 -10z m-5703 -21 c15 -6 44
-13 64 -15 20 -2 63 -13 95 -26 47 -18 54 -23 35 -26 -29 -5 -165 14 -241 34
-30 7 -91 20 -135 28 l-80 14 117 1 c65 1 129 -4 145 -10z m2843 -13 c0 -3 -4
-8 -10 -11 -5 -3 -10 -1 -10 4 0 6 5 11 10 11 6 0 10 -2 10 -4z m-3534 -15
c-16 -6 -10 -10 30 -20 107 -28 280 -41 222 -18 -7 3 1 6 19 6 18 1 36 -5 40
-13 10 -18 82 -46 208 -81 55 -15 106 -35 113 -43 6 -9 12 -35 12 -59 0 -38
-3 -43 -27 -49 -14 -4 -105 -4 -202 -1 -174 6 -302 23 -414 54 -46 13 -54 18
-42 27 13 9 11 11 -10 12 -16 1 -23 -2 -18 -10 3 -6 2 -7 -3 -3 -10 10 -11 13
-13 70 -1 31 -4 38 -11 27 -5 -8 -10 -30 -10 -47 l0 -33 -69 25 c-81 30 -132
55 -111 55 13 0 13 1 0 10 -17 11 -17 11 32 14 21 2 54 11 74 22 28 14 38 16
41 7 3 -7 9 -13 14 -13 6 0 6 8 -1 19 -12 24 7 42 21 20 7 -11 11 -10 23 6 10
14 27 21 57 22 30 1 38 -1 25 -6z m77 -8 c-7 -2 -21 -2 -30 0 -10 3 -4 5 12 5
17 0 24 -2 18 -5z m4367 -42 c-41 -27 -101 -63 -134 -81 -52 -29 -57 -31 -47
-12 15 28 85 75 163 112 95 43 102 35 18 -19z m-2220 19 c21 -13 -7 -22 -56
-17 l-39 4 45 3 45 3 -50 7 -50 7 45 1 c25 1 52 -2 60 -8z m121 3 c-23 -3 -30
-7 -22 -12 8 -5 -4 -11 -34 -15 -48 -8 -73 -1 -39 9 10 4 26 10 34 15 8 5 33
8 55 8 39 -1 39 -1 6 -5z m-1331 -23 c3 -4 20 -11 38 -15 55 -12 38 -28 -22
-21 -78 9 -88 14 -75 37 7 15 16 18 32 13 12 -4 24 -10 27 -14z m835 10 c13
-6 -13 -9 -78 -8 -53 0 -100 4 -103 9 -7 12 155 10 181 -1z m220 0 c3 -6 -4
-10 -17 -10 -18 0 -20 2 -8 10 19 12 18 12 25 0z m45 -6 c0 -2 -7 -4 -15 -4
-8 0 -15 4 -15 10 0 5 7 7 15 4 8 -4 15 -8 15 -10z m-95 -12 c-3 -3 -11 0 -18
7 -9 10 -8 11 6 5 10 -3 15 -9 12 -12z m-2670 -61 c28 -11 41 -20 30 -20 -34
0 -137 27 -149 40 -16 17 55 5 119 -20z m-1695 -76 c30 -30 52 -55 49 -55 -2
0 -29 25 -59 55 -30 30 -52 55 -49 55 2 0 29 -25 59 -55z m6310 52 c0 -7 -128
-106 -157 -120 l-31 -16 14 46 c16 52 14 50 51 74 23 14 123 27 123 16z m3686
-25 c-18 -16 -18 -16 -6 6 6 13 14 21 18 18 3 -4 -2 -14 -12 -24z m-4030 -23
c-49 -22 -102 -41 -117 -41 -16 -1 -26 -5 -23 -9 3 -5 -5 -8 -18 -6 -15 1 -22
-3 -20 -12 2 -9 -4 -12 -18 -8 -11 3 -20 1 -20 -4 0 -5 -9 -9 -19 -9 -11 0
-26 -6 -33 -12 -7 -7 -31 -25 -54 -41 -22 -15 -50 -36 -62 -47 -12 -11 -27
-20 -34 -19 -10 0 -10 2 0 6 6 2 12 9 12 15 0 6 -7 8 -14 5 -10 -4 -13 -1 -9
9 3 8 12 13 20 10 17 -7 53 14 53 31 0 7 6 10 13 7 7 -2 21 3 32 11 19 16 19
16 -9 10 -25 -5 -27 -4 -14 9 9 9 25 13 39 10 17 -4 14 0 -9 10 -33 16 -49 17
-44 4 3 -11 -12 -10 -23 1 -6 5 -23 11 -40 13 -22 2 -30 8 -30 23 0 14 -9 21
-30 25 -30 6 -30 6 10 13 95 18 100 18 86 9 -8 -6 -9 -12 -3 -16 6 -3 13 3 17
14 5 15 13 19 37 16 17 -2 42 0 57 3 14 4 100 8 191 9 l165 2 -89 -41z m-2867
11 c79 -22 136 -48 127 -57 -3 -3 -13 0 -22 8 -16 13 -16 12 -3 -9 8 -13 20
-20 29 -17 10 4 12 3 5 -4 -7 -6 -32 -5 -75 6 -36 8 -80 12 -99 9 -31 -5 -33
-4 -28 20 2 15 -1 28 -8 30 -12 5 -17 34 -6 34 4 0 39 -9 80 -20z m691 1 c25
-5 37 -9 26 -10 -12 -1 -16 -6 -12 -16 4 -12 -6 -15 -58 -15 -63 0 -76 7 -76
41 0 11 58 11 120 0z m2310 -17 c0 -4 -5 -24 -11 -44 -11 -37 -12 -38 -58 -34
-25 2 -52 3 -59 4 -22 0 -3 19 51 50 50 29 77 37 77 24z m-1573 -50 c-3 -3
-12 -4 -19 -1 -8 3 -5 6 6 6 11 1 17 -2 13 -5z m78 -4 c3 -6 -1 -7 -9 -4 -18
7 -21 14 -7 14 6 0 13 -4 16 -10z m-4361 -35 c9 -14 14 -31 10 -37 -7 -11 -33
26 -34 50 0 18 6 15 24 -13z m4351 15 c3 -6 -1 -7 -9 -4 -18 7 -21 14 -7 14 6
0 13 -4 16 -10z m725 -4 c0 -11 -19 -15 -25 -6 -3 5 1 10 9 10 9 0 16 -2 16
-4z m4635 -69 c-9 -43 -19 -51 -50 -43 l-26 7 31 39 c36 45 54 44 45 -3z
m-6165 1 c0 9 5 10 19 2 20 -10 22 -24 7 -50 -7 -12 -6 -13 4 -3 10 10 17 10
28 1 10 -9 15 -9 22 1 5 9 10 10 14 3 3 -6 2 -13 -4 -17 -15 -9 -2 -25 14 -19
8 3 16 -2 18 -12 2 -10 14 -18 31 -20 15 -1 25 1 22 6 -2 4 5 10 16 13 20 5
20 5 3 -15 -13 -14 -28 -19 -51 -16 -40 5 -44 -9 -5 -15 20 -3 17 -4 -9 -4
-34 1 -37 3 -32 26 4 25 4 25 -11 6 -16 -20 -16 -20 -22 3 -4 15 -9 20 -14 12
-5 -8 -19 -2 -44 20 -29 26 -34 35 -25 47 7 8 8 13 3 12 -21 -4 -26 2 -14 16
11 13 15 13 21 3 7 -10 9 -11 9 0z m1727 -74 c-3 -3 -12 -4 -19 -1 -8 3 -5 6
6 6 11 1 17 -2 13 -5z m-114 -21 c-7 -2 -21 -2 -30 0 -10 3 -4 5 12 5 17 0 24
-2 18 -5z m-1373 -38 c0 -11 7 -14 25 -9 25 6 35 -9 15 -21 -6 -4 -8 -11 -5
-16 4 -5 -1 -9 -9 -9 -10 0 -13 6 -9 16 5 13 2 15 -18 9 -13 -4 -28 -11 -33
-16 -6 -5 -14 -9 -20 -9 -5 0 2 9 15 21 13 11 23 27 21 35 -2 8 2 14 8 14 5 0
10 -7 10 -15z m1126 -3 c-16 -2 -32 0 -37 5 -5 5 7 7 29 4 34 -5 35 -6 8 -9z
m374 8 c-8 -5 -26 -9 -40 -9 -23 1 -23 2 5 9 43 11 52 11 35 0z m-1545 -20
c-10 -11 -21 -17 -24 -14 -3 3 3 12 13 20 28 20 32 17 11 -6z m151 -22 c3 -18
7 -39 9 -45 2 -7 -1 -13 -8 -14 -9 0 -9 -2 1 -6 6 -2 12 -9 12 -14 0 -4 -7 -6
-16 -2 -11 4 -14 13 -9 32 4 18 3 22 -4 12 -5 -8 -16 -11 -24 -8 -11 4 -14 1
-10 -9 4 -10 0 -12 -10 -8 -23 9 -9 36 15 28 19 -6 19 -5 4 18 -18 27 -11 44
11 27 10 -9 13 -7 13 11 0 33 11 18 16 -22z m185 27 c0 -5 -5 -11 -13 -13 -10
-3 -10 -1 1 6 11 8 10 11 -5 15 -16 5 -16 6 -1 4 10 -1 18 -6 18 -12z m-86 -8
c12 -10 15 -16 6 -21 -6 -4 -14 0 -17 8 -6 16 -44 23 -44 8 0 -19 42 -42 68
-37 27 5 27 5 3 -5 -19 -8 -22 -13 -13 -22 9 -9 15 -9 24 0 7 7 17 12 23 12 5
-1 -1 -10 -15 -22 l-25 -20 45 6 c40 6 43 5 27 -8 -19 -14 -7 -33 13 -21 6 3
10 1 10 -4 0 -6 15 -12 33 -12 31 -1 31 -1 -8 -10 -22 -4 -53 -6 -70 -3 -24 4
-27 3 -15 -6 12 -10 12 -11 -5 -5 -11 4 -28 10 -38 13 -13 3 -15 7 -7 12 8 5
7 9 -4 13 -9 4 -16 2 -16 -3 0 -6 -5 -10 -11 -10 -5 0 -7 5 -3 12 5 8 2 9 -9
5 -10 -3 -17 -2 -17 3 0 5 12 10 26 12 l26 3 -22 20 c-13 12 -20 14 -18 6 2
-7 -2 -15 -9 -18 -12 -4 -24 38 -20 72 3 33 49 45 82 22z m5463 -29 c-26 -33
-120 -87 -153 -88 -11 0 14 19 56 44 41 24 81 51 88 60 25 30 33 16 9 -16z
m-5653 -28 c-3 -5 -12 -10 -18 -10 -7 0 -6 4 3 10 19 12 23 12 15 0z m1249 -2
c-3 -4 -9 -8 -15 -8 -5 0 -9 4 -9 8 0 5 7 9 15 9 8 0 12 -4 9 -9z m-877 -40
c-3 -8 -6 -5 -6 6 -1 11 2 17 5 13 3 -3 4 -12 1 -19z m-50 6 c-3 -3 -12 -4
-19 -1 -8 3 -5 6 6 6 11 1 17 -2 13 -5z m293 -35 c0 -5 -4 -9 -10 -9 -5 0 -10
7 -10 16 0 8 5 12 10 9 6 -3 10 -10 10 -16z m-273 5 c-3 -3 -12 -4 -19 -1 -8
3 -5 6 6 6 11 1 17 -2 13 -5z m6 -41 c-7 -2 -19 -2 -25 0 -7 3 -2 5 12 5 14 0
19 -2 13 -5z m160 -13 c-8 -30 -21 -34 -15 -5 2 14 8 25 12 25 5 0 6 -9 3 -20z
m132 10 c-3 -5 -11 -10 -16 -10 -6 0 -7 5 -4 10 3 6 11 10 16 10 6 0 7 -4 4
-10z m4695 -115 c-13 -14 -26 -23 -28 -20 -7 7 29 45 41 45 6 0 0 -11 -13 -25z
m-100 -124 c0 -6 -4 -13 -10 -16 -5 -3 -10 1 -10 9 0 9 5 16 10 16 6 0 10 -4
10 -9z m-8466 -30 c26 -11 28 -13 14 -27 -25 -26 -101 6 -83 35 7 12 26 10 69
-8z m-342 -268 c24 -9 46 -21 49 -25 3 -5 13 -10 21 -12 9 -1 22 -7 30 -13 9
-8 19 -9 28 -2 13 8 12 12 -4 24 -18 14 -16 15 28 15 70 0 106 -22 106 -67 0
-28 2 -28 -51 -3 -54 24 -82 25 -104 4 -23 -23 -51 -12 -115 46 -59 53 -56 60
12 33z m14 -71 c-4 -3 -14 2 -24 12 -16 18 -16 18 6 6 13 -6 21 -14 18 -18z
m-366 -66 c-12 -12 -41 1 -48 22 -3 9 4 9 28 0 23 -8 29 -13 20 -22z m9204
-30 c-3 -9 -10 -16 -15 -16 -6 0 -5 9 1 21 13 24 24 20 14 -5z m-8816 -607
c-5 -3 -9 -10 -9 -14 2 -13 -28 -15 -36 -3 -4 7 -1 8 7 3 9 -6 10 -2 5 15 -5
15 -4 20 4 16 6 -4 11 -2 11 4 0 7 5 6 14 -2 8 -8 10 -15 4 -19z"/>
<path d="M8287 8493 c-13 -12 -7 -40 11 -56 27 -25 32 -21 32 23 0 32 -4 40
-18 40 -10 0 -22 -3 -25 -7z"/>
<path d="M2460 7780 c-12 -8 -11 -10 7 -10 12 0 25 5 28 10 8 13 -15 13 -35 0z"/>
<path d="M2990 7526 c0 -2 8 -10 18 -17 15 -13 16 -12 3 4 -13 16 -21 21 -21
13z"/>
<path d="M3060 7446 c0 -2 8 -10 18 -17 15 -13 16 -12 3 4 -13 16 -21 21 -21
13z"/>
<path d="M3090 7406 c0 -2 8 -10 18 -17 15 -13 16 -12 3 4 -13 16 -21 21 -21
13z"/>
<path d="M3143 7331 c12 -22 23 -38 25 -36 5 5 -26 63 -37 69 -5 4 0 -12 12
-33z"/>
<path d="M2960 7323 c30 -20 88 -69 128 -110 40 -41 69 -66 64 -56 -18 34
-126 136 -179 169 -71 46 -82 43 -13 -3z"/>
<path d="M3263 7275 c51 -106 67 -153 82 -246 12 -77 13 -80 14 -34 0 28 -6
78 -14 110 -17 64 -72 187 -99 220 -9 11 -2 -11 17 -50z"/>
<path d="M3201 7174 c0 -11 3 -14 6 -6 3 7 2 16 -1 19 -3 4 -6 -2 -5 -13z"/>
<path d="M3211 7134 c0 -11 3 -14 6 -6 3 7 2 16 -1 19 -3 4 -6 -2 -5 -13z"/>
<path d="M3221 7094 c0 -11 3 -14 6 -6 3 7 2 16 -1 19 -3 4 -6 -2 -5 -13z"/>
<path d="M3718 6563 c-9 -2 -19 -10 -21 -17 -4 -11 0 -11 19 -2 13 6 24 14 24
19 0 4 -1 6 -2 6 -2 -1 -10 -3 -20 -6z"/>
<path d="M1202 4654 c-7 -7 -8 -15 -3 -19 5 -3 12 1 14 7 3 7 6 3 6 -9 2 -43
277 -308 342 -328 13 -4 27 -12 33 -17 33 -28 278 -148 303 -148 12 0 24 -4
27 -9 3 -5 26 -14 51 -20 37 -9 136 -49 168 -68 4 -2 7 -2 7 1 0 10 -203 126
-230 131 -3 1 -16 6 -30 12 -14 6 -65 27 -113 47 -137 57 -269 155 -498 371
-52 49 -67 59 -77 49z"/>
<path d="M1015 4550 c3 -5 8 -10 11 -10 2 0 4 5 4 10 0 6 -5 10 -11 10 -5 0
-7 -4 -4 -10z"/>
<path d="M8587 4011 c-4 -17 -3 -21 5 -13 5 5 8 16 6 23 -3 8 -7 3 -11 -10z"/>
<path d="M2200 3800 c13 -9 7 -14 -12 -11 -15 2 -8 -8 12 -19 16 -9 18 -8 14
5 -4 8 -2 15 4 15 5 0 12 -7 16 -15 3 -8 13 -15 23 -15 15 0 16 -2 3 -10 -17
-11 -1 -13 24 -4 14 5 14 8 1 21 -9 8 -20 13 -27 11 -6 -2 -20 4 -30 14 -10
10 -24 18 -30 18 -9 0 -8 -4 2 -10z"/>
<path d="M5610 3690 c20 -13 43 -13 35 0 -3 6 -16 10 -28 10 -18 0 -19 -2 -7
-10z"/>
<path d="M3878 3478 c5 -5 16 -8 23 -6 8 3 3 7 -10 11 -17 4 -21 3 -13 -5z"/>
<path d="M4330 3265 c0 -8 2 -15 4 -15 2 0 6 7 10 15 3 8 1 15 -4 15 -6 0 -10
-7 -10 -15z"/>
<path d="M4398 3253 c7 -3 16 -2 19 1 4 3 -2 6 -13 5 -11 0 -14 -3 -6 -6z"/>
<path d="M5400 9461 c25 -22 63 -50 85 -62 57 -31 23 0 -60 55 l-70 47 45 -40z"/>
<path d="M3995 9258 c-66 -40 -214 -115 -330 -168 -247 -113 -288 -136 -585
-330 -274 -178 -369 -236 -482 -291 -92 -44 -123 -73 -40 -38 113 49 301 160
597 355 182 119 332 201 525 287 154 68 225 107 358 195 70 46 92 63 80 62 -2
0 -57 -33 -123 -72z"/>
<path d="M5630 9326 c0 -7 222 -77 228 -72 2 3 -42 19 -99 37 -57 17 -110 34
-116 36 -7 3 -13 3 -13 -1z"/>
<path d="M5595 9270 c-10 -16 14 -41 60 -61 22 -9 150 -44 285 -78 292 -72
511 -145 755 -253 222 -98 301 -130 433 -174 137 -46 367 -158 526 -255 26
-17 50 -29 52 -27 1 2 -31 28 -72 58 -94 69 -285 177 -434 245 -63 29 -173 80
-245 115 -384 184 -730 305 -1085 379 -129 27 -242 52 -251 56 -10 3 -20 1
-24 -5z"/>
<path d="M5280 9057 c0 -7 7 -22 15 -33 13 -17 14 -16 4 14 -11 33 -19 41 -19
19z"/>
<path d="M5318 9000 c-2 -7 -37 -13 -88 -16 -268 -15 -411 -26 -460 -34 -157
-27 -160 -28 -160 -13 0 21 -36 -2 -43 -28 -5 -19 -3 -20 21 -15 103 24 213
38 406 52 330 24 369 23 440 -9 32 -16 60 -26 63 -24 2 3 -27 17 -64 33 -37
15 -78 36 -89 47 -14 12 -23 14 -26 7z"/>
<path d="M5360 8923 c0 -5 148 -73 160 -73 5 0 35 -16 67 -35 32 -19 195 -99
363 -179 168 -80 352 -170 410 -200 113 -61 127 -65 137 -39 9 23 -35 60 -175
142 -143 85 -258 139 -491 232 -96 39 -191 79 -212 90 -43 21 -53 24 -44 9 13
-22 -64 -8 -137 24 -43 19 -78 32 -78 29z"/>
<path d="M2855 8878 c-45 -33 -268 -209 -285 -226 -36 -34 55 22 147 92 114
87 237 205 138 134z"/>
<path d="M4471 8879 c-173 -29 -361 -117 -949 -442 -106 -59 -198 -107 -204
-107 -6 0 -8 -3 -5 -7 4 -3 -1 -12 -11 -20 -40 -33 38 2 175 79 192 107 346
179 478 223 222 75 648 230 675 246 13 7 13 8 0 8 -41 0 -151 -33 -300 -89
-183 -69 -341 -122 -348 -116 -12 13 251 128 428 187 148 49 155 53 61 38z"/>
<path d="M7280 8730 c8 -6 47 -27 85 -47 39 -19 117 -66 175 -103 148 -95 241
-140 303 -146 28 -3 48 -1 44 3 -40 41 -492 277 -514 269 -9 -4 -11 -2 -7 6 5
8 2 9 -9 5 -10 -3 -17 -3 -17 2 0 4 -6 8 -12 9 -7 0 -24 4 -38 7 -20 5 -22 4
-10 -5z"/>
<path d="M2580 8600 c0 -5 5 -10 10 -10 6 0 10 -6 10 -14 0 -15 -21 -26 -52
-26 -11 0 -18 -5 -15 -12 6 -18 65 -13 88 8 10 9 19 28 19 41 0 19 -5 23 -30
23 -16 0 -30 -4 -30 -10z"/>
<path d="M1970 8435 c7 -8 17 -12 22 -9 6 4 5 10 -3 15 -22 14 -33 10 -19 -6z"/>
<path d="M1568 8399 c-43 -21 -78 -41 -78 -44 0 -3 36 13 80 35 44 22 80 42
80 45 0 7 4 8 -82 -36z"/>
<path d="M4975 8403 c-117 -11 -502 -99 -652 -149 -47 -15 -82 -39 -72 -48 3
-3 83 17 179 45 277 79 470 120 670 143 l115 13 -100 0 c-55 0 -118 -2 -140
-4z"/>
<path d="M5730 8210 c82 -12 142 -12 135 0 -4 6 -46 9 -98 9 -86 -2 -89 -2
-37 -9z"/>
<path d="M4596 8202 c-3 -5 77 -12 192 -15 108 -4 232 -10 275 -13 51 -5 77
-3 77 3 0 6 -8 15 -17 19 -25 12 -520 18 -527 6z"/>
<path d="M7330 8120 c-96 -42 -299 -191 -414 -302 -55 -53 -98 -100 -94 -103
3 -3 50 38 105 92 96 95 113 107 218 154 28 12 72 38 98 57 26 19 89 52 140
74 51 22 101 43 112 48 14 6 3 9 -40 9 -45 0 -76 -7 -125 -29z"/>
<path d="M4320 8131 c28 -10 86 -14 78 -6 -3 3 -27 8 -54 10 -36 3 -42 2 -24
-4z"/>
<path d="M3485 8008 c115 -94 251 -244 400 -443 46 -60 128 -154 183 -207 86
-83 106 -98 133 -98 l33 0 -25 28 c-14 15 -37 47 -51 72 -42 72 -202 252 -394
441 -185 181 -256 239 -296 239 -20 0 -18 -3 17 -32z m531 -520 l29 -33 -32
29 c-31 28 -38 36 -30 36 2 0 16 -15 33 -32z m64 -73 c13 -14 21 -25 18 -25
-2 0 -15 11 -28 25 -13 14 -21 25 -18 25 2 0 15 -11 28 -25z"/>
<path d="M4525 8010 c-21 -6 -7 -8 49 -9 44 0 77 1 75 3 -10 8 -97 12 -124 6z"/>
<path d="M4438 7993 c6 -2 18 -2 25 0 6 3 1 5 -13 5 -14 0 -19 -2 -12 -5z"/>
<path d="M4383 7983 c9 -2 23 -2 30 0 6 3 -1 5 -18 5 -16 0 -22 -2 -12 -5z"/>
<path d="M361 7869 c-6 -18 -11 -39 -10 -48 1 -9 7 4 15 28 16 51 12 68 -5 20z"/>
<path d="M6604 7778 l-19 -23 23 19 c21 18 27 26 19 26 -2 0 -12 -10 -23 -22z"/>
<path d="M8880 7797 c0 -3 12 -12 26 -22 15 -9 23 -12 20 -6 -7 11 -46 35 -46
28z"/>
<path d="M7549 7709 c-9 -6 9 -9 55 -9 38 0 67 2 65 4 -11 9 -107 14 -120 5z"/>
<path d="M7773 7703 c15 -2 37 -2 50 0 12 2 0 4 -28 4 -27 0 -38 -2 -22 -4z"/>
<path d="M7115 7680 c-36 -24 -52 -26 -35 -5 11 13 10 14 -4 9 -10 -4 -15 -13
-12 -20 3 -7 1 -16 -4 -19 -6 -4 -10 0 -10 7 0 16 -90 -72 -145 -142 -61 -79
-117 -194 -113 -233 3 -29 8 -22 50 66 49 102 136 230 169 248 10 5 18 15 16
22 -1 7 3 11 10 10 6 -1 17 4 23 12 7 8 17 15 22 15 6 0 -14 -26 -43 -57 -113
-124 -189 -270 -214 -413 -13 -72 -13 -76 7 -95 l20 -20 -6 33 c-8 47 47 250
91 335 21 39 68 103 110 147 40 42 70 80 66 84 -3 3 -2 6 3 6 14 0 52 29 39
30 -5 0 -23 -9 -40 -20z"/>
<path d="M7858 7693 c7 -3 16 -2 19 1 4 3 -2 6 -13 5 -11 0 -14 -3 -6 -6z"/>
<path d="M8320 7691 c0 -5 3 -17 6 -26 5 -13 8 -14 15 -3 12 19 11 25 -6 32
-8 3 -15 1 -15 -3z"/>
<path d="M7921 7666 c45 -31 63 -69 91 -188 11 -51 23 -95 25 -97 2 -3 9 1 15
7 9 9 9 15 0 24 -7 7 -12 35 -12 64 0 68 -57 176 -107 202 -40 22 -48 12 -12
-12z"/>
<path d="M10188 7640 c18 -17 38 -30 44 -30 7 0 -3 13 -22 30 -46 38 -65 38
-22 0z"/>
<path d="M6145 7458 l-40 -43 43 40 c23 21 42 40 42 42 0 8 -9 0 -45 -39z"/>
<path d="M7140 7414 c-62 -49 -98 -84 -123 -119 -11 -17 11 -1 49 35 38 36 85
78 104 93 19 15 31 27 25 26 -5 0 -30 -16 -55 -35z"/>
<path d="M8810 7333 c24 -29 45 -53 47 -53 8 0 -35 55 -63 80 -16 14 -9 2 16
-27z"/>
<path d="M7685 7350 c-7 -11 49 -17 71 -9 23 9 20 10 -29 13 -21 2 -40 0 -42
-4z"/>
<path d="M8468 7187 c-15 -12 -30 -35 -33 -52 l-7 -30 21 25 c65 77 73 103 19
57z"/>
<path d="M6521 7174 c0 -11 3 -14 6 -6 3 7 2 16 -1 19 -3 4 -6 -2 -5 -13z"/>
<path d="M1845 7039 c-50 -17 -110 -42 -135 -57 -43 -26 -44 -27 -19 -30 16
-2 56 11 95 31 38 19 85 40 104 47 19 7 39 17 44 21 22 20 -5 16 -89 -12z"/>
<path d="M9217 6950 c49 -69 83 -125 83 -135 0 -5 -12 2 -27 16 -15 13 -9 3
14 -23 65 -72 85 -165 66 -316 l-6 -53 -23 22 c-12 11 -30 19 -41 17 -15 -4
-8 -14 37 -56 44 -42 51 -52 37 -58 -9 -3 -14 -10 -12 -15 14 -22 -93 -189
-122 -189 -8 0 5 -20 32 -47 26 -26 65 -71 87 -100 40 -52 41 -55 35 -116 -8
-91 -22 -114 -79 -126 -26 -6 -60 -8 -76 -5 -36 7 -67 -8 -107 -51 -23 -25
-49 -37 -110 -54 -259 -72 -660 -278 -1114 -573 -394 -256 -704 -468 -697
-476 3 -2 87 52 188 121 359 244 767 500 999 628 220 120 694 314 672 275 -13
-23 -81 -74 -173 -128 -130 -78 -333 -207 -565 -358 -115 -75 -262 -171 -325
-212 -137 -88 -394 -242 -540 -323 -468 -260 -635 -373 -529 -360 17 3 41 7
53 11 11 4 -6 -14 -38 -40 -51 -39 -56 -46 -35 -46 13 0 54 20 90 44 36 24
132 79 214 122 81 42 166 91 189 108 22 18 86 64 141 103 151 107 760 471 771
460 3 -2 -69 -51 -158 -108 -89 -57 -228 -151 -308 -207 -80 -57 -162 -113
-183 -123 -21 -11 -40 -26 -43 -34 -3 -7 -24 -26 -47 -42 -83 -55 -162 -116
-144 -110 38 14 2 -16 -101 -83 -59 -38 -111 -73 -117 -77 -5 -4 -27 -17 -47
-28 -21 -10 -36 -21 -34 -23 21 -20 647 340 881 506 50 36 106 79 125 97 19
18 90 73 157 124 68 50 162 124 210 164 49 40 126 99 173 132 47 32 104 73
127 92 23 18 46 33 51 33 5 0 17 -21 27 -47 30 -81 73 -109 60 -40 -8 39 25
80 58 75 26 -4 37 -56 15 -69 -10 -7 -9 -9 5 -9 22 0 57 56 57 91 0 33 31 61
69 63 17 1 37 10 44 20 8 11 19 16 24 13 6 -4 16 0 23 8 11 13 10 14 -5 9 -19
-8 18 50 77 119 l26 32 19 -24 c13 -16 34 -26 64 -30 37 -5 47 -12 72 -48 62
-93 147 -53 118 55 -15 53 -68 107 -121 123 -23 7 -46 21 -51 31 -5 10 -16 18
-24 18 -7 0 -21 14 -29 32 -14 27 -14 33 -2 47 8 9 20 44 27 79 l12 64 79 -79
c88 -88 194 -239 204 -291 4 -21 2 -43 -5 -54 -15 -25 10 -25 32 0 25 28 21
83 -12 143 -74 138 -275 403 -319 421 -41 16 -41 5 -1 -32 24 -21 39 -39 33
-40 -12 0 -61 36 -110 82 -16 15 -37 33 -47 40 -16 12 -14 18 32 81 27 37 55
83 61 102 9 28 15 33 28 26 10 -5 74 -65 143 -133 122 -121 166 -180 225 -300
28 -58 61 -80 52 -35 -8 39 -131 227 -193 293 -33 35 -73 77 -90 95 -41 43
-11 27 95 -52 104 -77 172 -144 199 -198 27 -52 56 -57 48 -6 -7 44 -54 112
-128 186 -74 74 -275 223 -321 238 l-35 12 5 97 c3 74 0 113 -13 158 -24 83
-88 195 -146 257 l-50 52 38 -55z m293 -617 l25 -25 -25 12 c-42 21 -140 92
-140 102 0 12 108 -57 140 -89z m-74 -368 c37 -28 109 -113 102 -120 -2 -2
-37 29 -78 70 -75 75 -85 96 -24 50z m-168 -248 c3 -12 -3 -17 -20 -17 -18 0
-20 2 -8 10 11 7 11 10 2 10 -7 0 -10 5 -7 11 9 14 29 6 33 -14z m-78 -36 c0
-5 -11 -12 -24 -15 -13 -3 -32 -9 -41 -13 -13 -4 -16 -2 -13 8 4 12 28 21 71
28 4 0 7 -3 7 -8z m-1747 -1159 c-31 -23 -123 -74 -123 -68 0 5 132 86 140 86
3 0 -5 -8 -17 -18z m-173 -97 c0 -6 -160 -100 -223 -130 -78 -38 -22 0 106 73
116 64 117 65 117 57z"/>
<path d="M3970 6749 c0 -5 5 -7 10 -4 6 3 10 8 10 11 0 2 -4 4 -10 4 -5 0 -10
-5 -10 -11z"/>
<path d="M4071 6623 c-18 -17 -20 -23 -9 -23 17 0 42 25 36 37 -1 4 -14 -2
-27 -14z"/>
<path d="M5710 6527 c-41 -13 -84 -28 -95 -35 -28 -16 -14 -15 27 3 32 13 134
38 198 48 15 3 9 5 -15 5 -22 1 -74 -9 -115 -21z"/>
<path d="M3859 6520 c-32 -17 -89 -84 -89 -105 0 -5 -7 -17 -17 -27 -9 -10
-13 -21 -10 -24 7 -7 117 100 117 114 0 5 9 21 21 36 24 31 24 31 -22 6z"/>
<path d="M4025 6495 c-22 -8 -45 -15 -52 -15 -21 0 -103 -74 -154 -140 -42
-53 -85 -138 -81 -161 2 -9 -13 -59 -33 -111 -75 -202 -96 -319 -96 -538 0
-218 19 -326 98 -544 66 -186 176 -426 189 -414 2 2 -35 100 -82 218 -47 118
-101 269 -120 334 -64 221 -78 460 -39 681 16 93 56 228 83 280 9 17 15 37 14
46 -4 26 16 69 74 156 38 57 61 83 75 83 10 0 19 -6 19 -14 0 -24 26 -39 49
-26 67 35 310 -194 485 -458 94 -142 195 -323 239 -427 l17 -40 -5 48 c-16
158 -315 621 -506 784 -58 49 -49 54 55 27 128 -32 284 -126 446 -267 65 -57
100 -74 81 -39 -16 29 -113 119 -181 167 -148 105 -252 149 -388 166 -75 10
-92 16 -164 62 l-81 51 29 12 c58 24 175 36 242 25 141 -23 331 -135 506 -300
44 -42 47 -44 33 -15 -22 43 -146 158 -231 212 -39 25 -105 61 -146 80 l-75
33 50 -6 c133 -18 306 -115 436 -245 44 -43 79 -75 79 -71 0 4 -14 29 -31 54
-79 120 -280 252 -436 288 -26 6 -106 14 -178 19 -71 4 -141 11 -155 14 -14 3
-43 -1 -65 -9z"/>
<path d="M5550 6465 c-14 -8 -20 -14 -15 -14 6 0 21 6 35 14 14 8 21 14 15 14
-5 0 -21 -6 -35 -14z"/>
<path d="M5891 6435 c-76 -36 -291 -180 -408 -274 -98 -79 -274 -256 -264
-266 2 -3 -4 -12 -15 -19 -29 -21 -13 -27 24 -9 18 9 47 35 64 59 53 73 242
234 453 384 132 94 157 110 166 110 26 0 -2 -26 -103 -98 -128 -90 -369 -281
-441 -349 -94 -89 -106 -138 -13 -54 31 28 98 82 149 121 50 38 126 97 167
130 124 100 222 164 270 176 38 9 46 15 48 38 2 14 -1 26 -7 26 -6 0 -11 11
-11 25 0 31 -11 31 -79 0z"/>
<path d="M6120 6409 c0 -23 22 -50 65 -79 25 -17 52 -42 61 -55 18 -27 11 -65
-12 -65 -8 0 -14 -7 -14 -15 0 -11 -7 -13 -28 -9 -30 6 -84 -6 -169 -38 -39
-14 -65 -34 -104 -79 -52 -60 -52 -61 -40 -96 11 -30 11 -36 -4 -47 -10 -7
-16 -22 -13 -37 2 -20 8 -24 38 -24 30 0 35 -4 38 -25 8 -61 83 -69 138 -14
38 38 119 145 127 166 2 7 8 10 12 6 4 -4 -7 -37 -24 -74 -17 -36 -31 -72 -31
-79 0 -7 -7 -15 -15 -19 -18 -7 -19 -45 -2 -67 19 -25 57 -41 83 -35 19 5 24
13 24 40 0 18 18 75 41 125 32 74 42 111 50 187 9 90 9 98 -14 147 -25 54 -43
74 -139 151 -61 49 -68 52 -68 35z m190 -222 c11 -31 20 -70 20 -86 0 -44 -46
-179 -80 -236 -40 -67 -38 -54 5 30 33 67 34 73 33 176 -1 105 -2 106 -17 76
-10 -20 -25 -33 -40 -35 l-23 -4 27 36 c15 19 29 54 32 76 7 50 17 42 43 -33z"/>
<path d="M5383 6354 l-48 -46 53 42 c48 38 59 50 48 50 -2 0 -26 -21 -53 -46z"/>
<path d="M5920 6261 c-99 -31 -270 -123 -319 -171 -26 -25 -63 -77 -84 -116
-45 -86 -48 -105 -7 -41 16 26 53 69 81 96 56 54 225 150 352 202 42 17 74 35
71 40 -8 13 -31 10 -94 -10z"/>
<path d="M1463 6213 c-20 -7 -15 -48 8 -68 18 -18 23 -18 62 -5 30 11 43 21
45 38 4 27 -2 28 -29 1 -23 -23 -60 -22 -66 1 -3 9 -1 11 4 5 4 -6 13 -11 19
-10 15 0 44 31 37 39 -7 7 -62 7 -80 -1z"/>
<path d="M8872 6184 c-12 -8 -27 -24 -32 -35 -10 -18 -9 -19 14 -13 19 4 26 2
26 -9 0 -42 83 -20 88 24 2 19 -3 28 -23 37 -34 16 -46 15 -73 -4z"/>
<path d="M1169 6140 c54 -8 71 -27 151 -166 62 -107 137 -197 189 -227 43 -25
39 -4 -6 35 -82 72 -114 112 -178 225 -36 65 -74 124 -82 131 -9 6 -40 11 -67
11 l-51 -2 44 -7z"/>
<path d="M136 5927 c3 -10 9 -15 12 -12 3 3 0 11 -7 18 -10 9 -11 8 -5 -6z"/>
<path d="M1717 5909 c7 -7 15 -10 18 -7 3 3 -2 9 -12 12 -14 6 -15 5 -6 -5z"/>
<path d="M3950 5895 c0 -10 -10 -15 -33 -15 -89 0 -116 -130 -63 -305 49 -163
77 -225 126 -284 52 -63 161 -163 168 -156 3 2 -29 42 -70 87 -102 115 -114
132 -133 191 -10 29 -28 80 -42 115 -22 58 -53 191 -53 230 0 12 7 9 28 -11
16 -15 30 -25 33 -23 2 2 4 -12 4 -32 2 -168 5 -192 26 -210 12 -9 42 -34 67
-56 45 -38 47 -38 106 -32 111 13 136 18 136 32 0 33 -46 132 -74 158 -36 33
-86 105 -86 124 0 28 21 7 85 -83 37 -53 70 -94 72 -91 6 6 -22 60 -69 131
l-39 60 39 -42 c48 -52 108 -150 117 -192 11 -50 23 -36 18 22 -4 58 -55 171
-101 227 -44 53 -221 170 -257 170 -3 0 -5 -7 -5 -15z"/>
<path d="M6337 5690 c3 -11 7 -20 9 -20 2 0 4 9 4 20 0 11 -4 20 -9 20 -5 0
-7 -9 -4 -20z"/>
<path d="M6344 5500 c-2 -239 -59 -598 -125 -787 -17 -47 -28 -87 -26 -90 10
-9 78 186 107 302 64 262 96 641 59 705 -13 23 -14 11 -15 -130z"/>
<path d="M1720 5616 c0 -2 12 -12 28 -21 l27 -18 -19 21 c-17 20 -36 29 -36
18z"/>
<path d="M1526 5548 c3 -5 10 -6 15 -3 13 9 11 12 -6 12 -8 0 -12 -4 -9 -9z"/>
<path d="M1560 5540 c0 -5 5 -10 11 -10 5 0 7 5 4 10 -3 6 -8 10 -11 10 -2 0
-4 -4 -4 -10z"/>
<path d="M10042 5398 c-14 -14 -16 -28 -3 -28 9 0 24 30 18 36 -2 2 -9 -2 -15
-8z"/>
<path d="M5686 5367 c-12 -9 -17 -20 -13 -31 4 -9 2 -28 -3 -42 -6 -14 -7 -37
-4 -50 5 -21 11 -24 33 -19 21 4 33 0 51 -20 27 -28 71 -33 90 -10 8 10 10 29
6 55 l-6 40 32 -2 c27 -3 33 1 33 17 0 44 -176 94 -219 62z"/>
<path d="M5438 4830 c-40 -12 -112 -65 -152 -112 -49 -57 -38 -60 15 -3 23 25
63 56 88 67 25 12 64 29 86 39 33 15 36 18 15 18 -14 0 -37 -4 -52 -9z"/>
<path d="M4596 4793 c14 -21 44 -76 66 -123 22 -47 43 -79 45 -72 7 20 -24 96
-63 152 -19 28 -32 50 -30 50 22 0 66 -29 112 -71 57 -55 73 -55 27 -1 -32 36
-138 102 -165 102 -15 0 -14 -4 8 -37z"/>
<path d="M6083 4543 c-18 -6 -16 -23 1 -23 43 0 27 -271 -30 -495 -4 -17 -3
-18 5 -4 19 30 68 252 75 339 11 123 -10 197 -51 183z"/>
<path d="M6278 4509 c-10 -5 -18 -19 -18 -29 0 -27 -21 -36 -36 -16 -7 10 -21
16 -31 14 -16 -3 -18 -16 -21 -108 -3 -116 12 -255 30 -277 26 -32 38 9 48
170 9 152 24 217 51 217 26 0 69 -196 67 -310 -1 -85 -1 -85 -8 -25 -6 58 -7
59 -8 14 -1 -26 1 -61 4 -78 6 -27 11 -32 33 -29 23 3 27 9 33 48 13 85 9 264
-7 317 -23 77 -89 121 -137 92z m92 -82 c0 -12 0 -11 -24 28 l-17 30 20 -24
c12 -13 21 -28 21 -34z"/>
<path d="M3820 4464 c-11 -13 -10 -16 8 -21 13 -3 25 -16 28 -30 10 -37 -5
-155 -22 -180 -13 -20 -13 -23 1 -23 23 0 35 42 35 121 0 78 15 92 26 24 11
-76 1 -175 -20 -191 -29 -21 -9 -36 25 -18 87 44 94 192 14 289 -39 48 -72 58
-95 29z"/>
<path d="M5046 4435 c-3 -8 -1 -15 4 -15 6 0 10 7 10 15 0 8 -2 15 -4 15 -2 0
-6 -7 -10 -15z"/>
<path d="M3758 4356 c-24 -17 -23 -32 2 -39 13 -3 20 -14 20 -29 1 -12 8 -34
16 -48 l15 -25 -5 25 c-3 14 -6 49 -6 78 0 55 -9 63 -42 38z"/>
<path d="M7165 4284 c-56 -37 -68 -52 -20 -24 39 22 74 50 64 50 -2 0 -22 -12
-44 -26z"/>
<path d="M10132 3708 c6 -17 86 -78 101 -78 13 1 -83 89 -96 90 -5 0 -7 -6 -5
-12z"/>
<path d="M0 2865 c0 -59 13 -70 44 -40 12 12 13 22 5 43 -26 69 -49 68 -49 -3z"/>
<path d="M580 2761 c0 -10 24 -21 48 -21 13 0 12 3 -4 15 -21 16 -44 19 -44 6z"/>
<path d="M220 2165 c0 -7 63 -64 71 -65 4 0 -8 16 -27 35 -31 33 -44 42 -44
30z"/>
<path d="M0 155 l0 -156 140 2 c106 1 142 4 151 15 16 19 33 18 25 -2 -5 -14
-4 -15 9 -4 11 9 13 16 5 24 -5 5 -10 18 -10 28 0 10 -5 18 -10 18 -6 0 -10
-6 -8 -14 2 -8 0 -15 -4 -15 -27 -3 -37 1 -42 15 -5 12 -1 14 17 9 17 -5 19
-4 7 4 -8 6 -24 11 -35 12 -17 1 -16 2 5 9 17 6 19 8 7 9 -10 1 -20 8 -23 16
-4 8 -12 15 -20 15 -7 0 -11 6 -8 14 4 11 0 13 -17 9 -19 -5 -21 -3 -17 20 3
15 1 27 -3 27 -5 0 -9 -6 -9 -12 -1 -7 -11 0 -24 16 -17 21 -30 27 -45 23 -12
-3 -19 -1 -16 3 3 5 0 10 -7 13 -7 2 -2 3 12 1 14 -2 19 -1 12 2 -6 3 -10 9
-7 14 3 4 -1 8 -8 7 -38 -1 -57 5 -57 18 0 8 -4 15 -10 15 -6 0 -10 -58 -10
-155z m80 55 c0 -5 -5 -10 -11 -10 -5 0 -7 5 -4 10 3 6 8 10 11 10 2 0 4 -4 4
-10z"/>
<path d="M10202 113 c2 -10 -7 -22 -22 -30 -14 -7 -19 -13 -11 -13 9 0 10 -4
4 -12 -5 -7 -10 -23 -11 -35 -1 -20 4 -23 39 -23 l39 0 0 65 c0 59 -2 65 -20
65 -14 0 -20 -6 -18 -17z"/>
<path d="M282 108 c3 -7 12 -14 22 -14 14 -2 14 -1 -1 3 -16 5 -16 6 2 14 19
7 18 8 -3 8 -15 1 -22 -4 -20 -11z"/>
<path d="M10140 45 c0 -8 2 -15 4 -15 2 0 6 7 10 15 3 8 1 15 -4 15 -6 0 -10
-7 -10 -15z"/>
<path d="M10130 10 c0 -5 5 -10 10 -10 6 0 10 5 10 10 0 6 -4 10 -10 10 -5 0
-10 -4 -10 -10z"/>
</g>
</svg>
